<mxfile host="drawio-plugin" modified="2022-03-17T04:30:00.087Z" agent="5.0 (Macintosh; Intel Mac OS X 12_2_1) AppleWebKit/537.36 (KHTML, like Gecko) Chrome/89.0.4389.114 Safari/537.36" etag="cmFVaqsGmam00Npb_L_X" version="15.5.4" type="embed" pages="3"><diagram id="kzQ7AzHDL8FXNnbaPC4O" name="production"><mxGraphModel dx="1849" dy="1367" grid="1" gridSize="10" guides="1" tooltips="1" connect="0" arrows="1" fold="1" page="1" pageScale="1" pageWidth="1100" pageHeight="850" math="0" shadow="0"><root><mxCell id="0"/><mxCell id="1" parent="0"/><mxCell id="VoakX362d_o3581oTcXl-1" value="IBM Cloud" style="shape=mxgraph.ibm.box;prType=cloud;fontStyle=0;verticalAlign=top;align=left;spacingLeft=32;spacingTop=4;fillColor=none;rounded=0;whiteSpace=wrap;html=1;strokeColor=#4376BB;strokeWidth=3;dashed=0;container=1;spacing=-4;collapsible=0;expand=0;recursiveResize=0;" parent="1" vertex="1"><mxGeometry x="-40" y="-200" width="1080" height="1640" as="geometry"/></mxCell><mxCell id="VoakX362d_o3581oTcXl-109" value="" style="aspect=fixed;perimeter=ellipsePerimeter;html=1;align=center;shadow=0;dashed=0;fontColor=#4277BB;labelBackgroundColor=#ffffff;fontSize=12;spacingTop=3;image;image=img/lib/ibm/vpc/TransitGateway.svg;fillColor=#FF0000;" parent="VoakX362d_o3581oTcXl-1" vertex="1"><mxGeometry x="1030" y="540" width="40" height="40" as="geometry"/></mxCell><mxCell id="VoakX362d_o3581oTcXl-3" value="development (VPC)" style="shape=mxgraph.ibm.box;prType=vpc;fontStyle=0;verticalAlign=top;align=left;spacingLeft=32;spacingTop=4;fillColor=none;rounded=0;whiteSpace=wrap;html=1;strokeColor=#4376BB;strokeWidth=2;dashed=0;container=1;spacing=-4;collapsible=0;expand=0;recursiveResize=0;" parent="VoakX362d_o3581oTcXl-1" vertex="1"><mxGeometry x="140" y="570" width="780" height="430" as="geometry"/></mxCell><mxCell id="VoakX362d_o3581oTcXl-51" value="&lt;font style=&quot;font-size: 12px&quot;&gt;Zone 1 - 10.10.0.0/22&lt;/font&gt;" style="shape=mxgraph.ibm.box;prType=zone;fontStyle=0;verticalAlign=top;align=left;spacingLeft=32;spacingTop=4;fillColor=#E0E0E0;rounded=0;whiteSpace=wrap;html=1;strokeColor=#919191;strokeWidth=1;dashed=0;container=1;spacing=-4;collapsible=0;expand=0;recursiveResize=0;fontSize=10;" parent="VoakX362d_o3581oTcXl-3" vertex="1"><mxGeometry x="20" y="30" width="200" height="390" as="geometry"/></mxCell><mxCell id="VoakX362d_o3581oTcXl-52" value="&lt;font style=&quot;font-size: 12px&quot;&gt;Zone 1 - 10.11.0.0/22&lt;/font&gt;" style="shape=mxgraph.ibm.box;prType=zone;fontStyle=0;verticalAlign=top;align=left;spacingLeft=32;spacingTop=4;fillColor=#E0E0E0;rounded=0;whiteSpace=wrap;html=1;strokeColor=#919191;strokeWidth=1;dashed=0;container=1;spacing=-4;collapsible=0;expand=0;recursiveResize=0;fontSize=10;" parent="VoakX362d_o3581oTcXl-3" vertex="1"><mxGeometry x="240" y="30" width="200" height="390" as="geometry"/></mxCell><mxCell id="VoakX362d_o3581oTcXl-53" value="&lt;font style=&quot;font-size: 12px&quot;&gt;Zone 1 - 10.12.0.0/22&lt;/font&gt;" style="shape=mxgraph.ibm.box;prType=zone;fontStyle=0;verticalAlign=top;align=left;spacingLeft=32;spacingTop=4;fillColor=#E0E0E0;rounded=0;whiteSpace=wrap;html=1;strokeColor=#919191;strokeWidth=1;dashed=0;container=1;spacing=-4;collapsible=0;expand=0;recursiveResize=0;fontSize=10;" parent="VoakX362d_o3581oTcXl-3" vertex="1"><mxGeometry x="460" y="30" width="200" height="390" as="geometry"/></mxCell><mxCell id="VoakX362d_o3581oTcXl-137" value="ACL: worker" style="shape=mxgraph.ibm.box;prType=subnet;fontStyle=0;verticalAlign=top;align=left;spacingLeft=32;spacingTop=4;fillColor=#E6F0E2;rounded=0;whiteSpace=wrap;html=1;strokeColor=#00882B;strokeWidth=1;dashed=0;container=1;spacing=-4;collapsible=0;expand=0;recursiveResize=0;fontSize=10;" parent="VoakX362d_o3581oTcXl-53" vertex="1"><mxGeometry x="-430" y="35" width="620" height="175" as="geometry"/></mxCell><mxCell id="VoakX362d_o3581oTcXl-159" value="VPE&lt;br&gt;GW" style="rounded=0;whiteSpace=wrap;html=1;fontSize=10;fillColor=#f5f5f5;align=center;strokeColor=#666666;fontColor=#333333;" parent="VoakX362d_o3581oTcXl-3" vertex="1"><mxGeometry x="710" y="190" width="50" height="230" as="geometry"/></mxCell><mxCell id="VoakX362d_o3581oTcXl-160" value="" style="aspect=fixed;perimeter=ellipsePerimeter;html=1;align=center;shadow=0;dashed=0;fontColor=#4277BB;labelBackgroundColor=#ffffff;fontSize=12;spacingTop=3;image;image=img/lib/ibm/vpc/LoadBalancerPool.svg;fillColor=#FF0000;" parent="VoakX362d_o3581oTcXl-3" vertex="1"><mxGeometry x="710" y="190" width="29.82" height="29.82" as="geometry"/></mxCell><mxCell id="VoakX362d_o3581oTcXl-138" value="10.10.0.0/24 - worker1" style="sketch=0;outlineConnect=0;gradientColor=none;html=1;whiteSpace=wrap;fontSize=12;fontStyle=0;shape=mxgraph.aws4.group;grIcon=mxgraph.aws4.group_subnet;strokeColor=#879196;fillColor=none;verticalAlign=top;align=left;spacingLeft=30;fontColor=#879196;dashed=0;" parent="VoakX362d_o3581oTcXl-1" vertex="1"><mxGeometry x="180" y="669.28" width="170" height="130" as="geometry"/></mxCell><mxCell id="VoakX362d_o3581oTcXl-139" value="10.11.0.0/24 - worker2" style="sketch=0;outlineConnect=0;gradientColor=none;html=1;whiteSpace=wrap;fontSize=12;fontStyle=0;shape=mxgraph.aws4.group;grIcon=mxgraph.aws4.group_subnet;strokeColor=#879196;fillColor=none;verticalAlign=top;align=left;spacingLeft=30;fontColor=#879196;dashed=0;" parent="VoakX362d_o3581oTcXl-1" vertex="1"><mxGeometry x="390" y="669.28" width="180" height="130" as="geometry"/></mxCell><mxCell id="VoakX362d_o3581oTcXl-140" value="10.12.0.0/24 - worker3" style="sketch=0;outlineConnect=0;gradientColor=none;html=1;whiteSpace=wrap;fontSize=12;fontStyle=0;shape=mxgraph.aws4.group;grIcon=mxgraph.aws4.group_subnet;strokeColor=#879196;fillColor=none;verticalAlign=top;align=left;spacingLeft=30;fontColor=#879196;dashed=0;" parent="VoakX362d_o3581oTcXl-1" vertex="1"><mxGeometry x="610" y="669.28" width="170" height="130" as="geometry"/></mxCell><mxCell id="VoakX362d_o3581oTcXl-147" value="SG: VPC Default &amp;amp; Cluster" style="fontStyle=0;verticalAlign=top;align=left;spacingTop=-2;fillColor=none;rounded=0;whiteSpace=wrap;html=1;strokeColor=#FF0000;strokeWidth=2;dashed=1;container=1;collapsible=0;expand=0;recursiveResize=0;fontSize=10;" parent="VoakX362d_o3581oTcXl-1" vertex="1"><mxGeometry x="190" y="699.28" width="580" height="90" as="geometry"/></mxCell><mxCell id="VoakX362d_o3581oTcXl-141" value="" style="sketch=0;aspect=fixed;html=1;points=[];align=center;image;fontSize=12;image=img/lib/mscae/OpenShift.svg;fillColor=#FF0000;" parent="VoakX362d_o3581oTcXl-147" vertex="1"><mxGeometry x="10" y="22" width="50" height="46" as="geometry"/></mxCell><mxCell id="VoakX362d_o3581oTcXl-142" value="" style="sketch=0;aspect=fixed;html=1;points=[];align=center;image;fontSize=12;image=img/lib/mscae/OpenShift.svg;fillColor=#FF0000;" parent="VoakX362d_o3581oTcXl-147" vertex="1"><mxGeometry x="80" y="38" width="50" height="46" as="geometry"/></mxCell><mxCell id="VoakX362d_o3581oTcXl-143" value="" style="sketch=0;aspect=fixed;html=1;points=[];align=center;image;fontSize=12;image=img/lib/mscae/OpenShift.svg;fillColor=#FF0000;" parent="VoakX362d_o3581oTcXl-147" vertex="1"><mxGeometry x="225" y="20" width="50" height="46" as="geometry"/></mxCell><mxCell id="VoakX362d_o3581oTcXl-144" value="" style="sketch=0;aspect=fixed;html=1;points=[];align=center;image;fontSize=12;image=img/lib/mscae/OpenShift.svg;fillColor=#FF0000;" parent="VoakX362d_o3581oTcXl-147" vertex="1"><mxGeometry x="300" y="38" width="50" height="46" as="geometry"/></mxCell><mxCell id="VoakX362d_o3581oTcXl-145" value="" style="sketch=0;aspect=fixed;html=1;points=[];align=center;image;fontSize=12;image=img/lib/mscae/OpenShift.svg;fillColor=#FF0000;" parent="VoakX362d_o3581oTcXl-147" vertex="1"><mxGeometry x="445" y="20" width="50" height="46" as="geometry"/></mxCell><mxCell id="VoakX362d_o3581oTcXl-146" value="" style="sketch=0;aspect=fixed;html=1;points=[];align=center;image;fontSize=12;image=img/lib/mscae/OpenShift.svg;fillColor=#FF0000;" parent="VoakX362d_o3581oTcXl-147" vertex="1"><mxGeometry x="520" y="38" width="50" height="46" as="geometry"/></mxCell><mxCell id="VoakX362d_o3581oTcXl-4" value="production (VPC)" style="shape=mxgraph.ibm.box;prType=vpc;fontStyle=0;verticalAlign=top;align=left;spacingLeft=32;spacingTop=4;fillColor=none;rounded=0;whiteSpace=wrap;html=1;strokeColor=#4376BB;strokeWidth=2;dashed=0;container=1;spacing=-4;collapsible=0;expand=0;recursiveResize=0;" parent="VoakX362d_o3581oTcXl-1" vertex="1"><mxGeometry x="140" y="1030" width="780" height="570" as="geometry"/></mxCell><mxCell id="VoakX362d_o3581oTcXl-177" value="&lt;font style=&quot;font-size: 12px&quot;&gt;Zone 1 - 10.20.0.0/22&lt;/font&gt;" style="shape=mxgraph.ibm.box;prType=zone;fontStyle=0;verticalAlign=top;align=left;spacingLeft=32;spacingTop=4;fillColor=#E0E0E0;rounded=0;whiteSpace=wrap;html=1;strokeColor=#919191;strokeWidth=1;dashed=0;container=1;spacing=-4;collapsible=0;expand=0;recursiveResize=0;fontSize=10;" parent="VoakX362d_o3581oTcXl-4" vertex="1"><mxGeometry x="20" y="29.28" width="200" height="510.72" as="geometry"/></mxCell><mxCell id="VoakX362d_o3581oTcXl-178" value="&lt;font style=&quot;font-size: 12px&quot;&gt;Zone 1 - 10.21.0.0/22&lt;/font&gt;" style="shape=mxgraph.ibm.box;prType=zone;fontStyle=0;verticalAlign=top;align=left;spacingLeft=32;spacingTop=4;fillColor=#E0E0E0;rounded=0;whiteSpace=wrap;html=1;strokeColor=#919191;strokeWidth=1;dashed=0;container=1;spacing=-4;collapsible=0;expand=0;recursiveResize=0;fontSize=10;" parent="VoakX362d_o3581oTcXl-4" vertex="1"><mxGeometry x="240" y="29.28" width="200" height="510.72" as="geometry"/></mxCell><mxCell id="VoakX362d_o3581oTcXl-179" value="&lt;font style=&quot;font-size: 12px&quot;&gt;Zone 1 - 10.22.0.0/22&lt;/font&gt;" style="shape=mxgraph.ibm.box;prType=zone;fontStyle=0;verticalAlign=top;align=left;spacingLeft=32;spacingTop=4;fillColor=#E0E0E0;rounded=0;whiteSpace=wrap;html=1;strokeColor=#919191;strokeWidth=1;dashed=0;container=1;spacing=-4;collapsible=0;expand=0;recursiveResize=0;fontSize=10;" parent="VoakX362d_o3581oTcXl-4" vertex="1"><mxGeometry x="460" y="29.28" width="200" height="510.72" as="geometry"/></mxCell><mxCell id="VoakX362d_o3581oTcXl-180" value="ACL: worker" style="shape=mxgraph.ibm.box;prType=subnet;fontStyle=0;verticalAlign=top;align=left;spacingLeft=32;spacingTop=4;fillColor=#E6F0E2;rounded=0;whiteSpace=wrap;html=1;strokeColor=#00882B;strokeWidth=1;dashed=0;container=1;spacing=-4;collapsible=0;expand=0;recursiveResize=0;fontSize=10;" parent="VoakX362d_o3581oTcXl-179" vertex="1"><mxGeometry x="-430" y="35" width="620" height="175" as="geometry"/></mxCell><mxCell id="VoakX362d_o3581oTcXl-181" value="ACL: vpe" style="shape=mxgraph.ibm.box;prType=subnet;fontStyle=0;verticalAlign=top;align=left;spacingLeft=32;spacingTop=4;fillColor=#E6F0E2;rounded=0;whiteSpace=wrap;html=1;strokeColor=#00882B;strokeWidth=1;dashed=0;container=1;spacing=-4;collapsible=0;expand=0;recursiveResize=0;fontSize=10;" parent="VoakX362d_o3581oTcXl-179" vertex="1"><mxGeometry x="-430" y="224.64" width="620" height="125.36" as="geometry"/></mxCell><mxCell id="VoakX362d_o3581oTcXl-182" value="ACL: ingress" style="shape=mxgraph.ibm.box;prType=subnet;fontStyle=0;verticalAlign=top;align=left;spacingLeft=32;spacingTop=4;fillColor=#E6F0E2;rounded=0;whiteSpace=wrap;html=1;strokeColor=#00882B;strokeWidth=1;dashed=0;container=1;spacing=-4;collapsible=0;expand=0;recursiveResize=0;fontSize=10;" parent="VoakX362d_o3581oTcXl-179" vertex="1"><mxGeometry x="-430" y="369.28" width="620" height="130.72" as="geometry"/></mxCell><mxCell id="VoakX362d_o3581oTcXl-183" value="VPE&lt;br&gt;GW" style="rounded=0;whiteSpace=wrap;html=1;fontSize=10;fillColor=#f5f5f5;align=center;strokeColor=#666666;fontColor=#333333;" parent="VoakX362d_o3581oTcXl-4" vertex="1"><mxGeometry x="710" y="240" width="50" height="208.56" as="geometry"/></mxCell><mxCell id="VoakX362d_o3581oTcXl-184" value="" style="aspect=fixed;perimeter=ellipsePerimeter;html=1;align=center;shadow=0;dashed=0;fontColor=#4277BB;labelBackgroundColor=#ffffff;fontSize=12;spacingTop=3;image;image=img/lib/ibm/vpc/LoadBalancerPool.svg;fillColor=#FF0000;" parent="VoakX362d_o3581oTcXl-4" vertex="1"><mxGeometry x="710" y="239.99999999999994" width="29.82" height="29.82" as="geometry"/></mxCell><mxCell id="VoakX362d_o3581oTcXl-185" value="10.20.0.0/24 - worker1" style="sketch=0;outlineConnect=0;gradientColor=none;html=1;whiteSpace=wrap;fontSize=12;fontStyle=0;shape=mxgraph.aws4.group;grIcon=mxgraph.aws4.group_subnet;strokeColor=#879196;fillColor=none;verticalAlign=top;align=left;spacingLeft=30;fontColor=#879196;dashed=0;" parent="VoakX362d_o3581oTcXl-4" vertex="1"><mxGeometry x="40" y="98.55999999999995" width="170" height="130" as="geometry"/></mxCell><mxCell id="VoakX362d_o3581oTcXl-186" value="10.21.0.0/24 - worker2" style="sketch=0;outlineConnect=0;gradientColor=none;html=1;whiteSpace=wrap;fontSize=12;fontStyle=0;shape=mxgraph.aws4.group;grIcon=mxgraph.aws4.group_subnet;strokeColor=#879196;fillColor=none;verticalAlign=top;align=left;spacingLeft=30;fontColor=#879196;dashed=0;" parent="VoakX362d_o3581oTcXl-4" vertex="1"><mxGeometry x="250" y="98.55999999999995" width="180" height="130" as="geometry"/></mxCell><mxCell id="VoakX362d_o3581oTcXl-187" value="10.22.0.0/24 - worker3" style="sketch=0;outlineConnect=0;gradientColor=none;html=1;whiteSpace=wrap;fontSize=12;fontStyle=0;shape=mxgraph.aws4.group;grIcon=mxgraph.aws4.group_subnet;strokeColor=#879196;fillColor=none;verticalAlign=top;align=left;spacingLeft=30;fontColor=#879196;dashed=0;" parent="VoakX362d_o3581oTcXl-4" vertex="1"><mxGeometry x="470" y="98.55999999999995" width="170" height="130" as="geometry"/></mxCell><mxCell id="VoakX362d_o3581oTcXl-188" value="SG: VPC Default &amp;amp; Cluster" style="fontStyle=0;verticalAlign=top;align=left;spacingTop=-2;fillColor=none;rounded=0;whiteSpace=wrap;html=1;strokeColor=#FF0000;strokeWidth=2;dashed=1;container=1;collapsible=0;expand=0;recursiveResize=0;fontSize=10;" parent="VoakX362d_o3581oTcXl-4" vertex="1"><mxGeometry x="50" y="128.55999999999995" width="580" height="90" as="geometry"/></mxCell><mxCell id="VoakX362d_o3581oTcXl-189" value="" style="sketch=0;aspect=fixed;html=1;points=[];align=center;image;fontSize=12;image=img/lib/mscae/OpenShift.svg;fillColor=#FF0000;" parent="VoakX362d_o3581oTcXl-188" vertex="1"><mxGeometry x="10" y="22" width="50" height="46" as="geometry"/></mxCell><mxCell id="VoakX362d_o3581oTcXl-190" value="" style="sketch=0;aspect=fixed;html=1;points=[];align=center;image;fontSize=12;image=img/lib/mscae/OpenShift.svg;fillColor=#FF0000;" parent="VoakX362d_o3581oTcXl-188" vertex="1"><mxGeometry x="80" y="38" width="50" height="46" as="geometry"/></mxCell><mxCell id="VoakX362d_o3581oTcXl-191" value="" style="sketch=0;aspect=fixed;html=1;points=[];align=center;image;fontSize=12;image=img/lib/mscae/OpenShift.svg;fillColor=#FF0000;" parent="VoakX362d_o3581oTcXl-188" vertex="1"><mxGeometry x="225" y="20" width="50" height="46" as="geometry"/></mxCell><mxCell id="VoakX362d_o3581oTcXl-192" value="" style="sketch=0;aspect=fixed;html=1;points=[];align=center;image;fontSize=12;image=img/lib/mscae/OpenShift.svg;fillColor=#FF0000;" parent="VoakX362d_o3581oTcXl-188" vertex="1"><mxGeometry x="300" y="38" width="50" height="46" as="geometry"/></mxCell><mxCell id="VoakX362d_o3581oTcXl-193" value="" style="sketch=0;aspect=fixed;html=1;points=[];align=center;image;fontSize=12;image=img/lib/mscae/OpenShift.svg;fillColor=#FF0000;" parent="VoakX362d_o3581oTcXl-188" vertex="1"><mxGeometry x="445" y="20" width="50" height="46" as="geometry"/></mxCell><mxCell id="VoakX362d_o3581oTcXl-194" value="" style="sketch=0;aspect=fixed;html=1;points=[];align=center;image;fontSize=12;image=img/lib/mscae/OpenShift.svg;fillColor=#FF0000;" parent="VoakX362d_o3581oTcXl-188" vertex="1"><mxGeometry x="520" y="38" width="50" height="46" as="geometry"/></mxCell><mxCell id="VoakX362d_o3581oTcXl-195" value="10.20.1.0/25 - vpe1" style="sketch=0;outlineConnect=0;gradientColor=none;html=1;whiteSpace=wrap;fontSize=12;fontStyle=0;shape=mxgraph.aws4.group;grIcon=mxgraph.aws4.group_subnet;strokeColor=#879196;fillColor=none;verticalAlign=top;align=left;spacingLeft=30;fontColor=#879196;dashed=0;" parent="VoakX362d_o3581oTcXl-4" vertex="1"><mxGeometry x="40" y="288.91999999999985" width="170" height="79.64" as="geometry"/></mxCell><mxCell id="VoakX362d_o3581oTcXl-196" value="10.21.1.0/25 - vpe2" style="sketch=0;outlineConnect=0;gradientColor=none;html=1;whiteSpace=wrap;fontSize=12;fontStyle=0;shape=mxgraph.aws4.group;grIcon=mxgraph.aws4.group_subnet;strokeColor=#879196;fillColor=none;verticalAlign=top;align=left;spacingLeft=30;fontColor=#879196;dashed=0;" parent="VoakX362d_o3581oTcXl-4" vertex="1"><mxGeometry x="255" y="288.91999999999985" width="170" height="79.64" as="geometry"/></mxCell><mxCell id="VoakX362d_o3581oTcXl-197" value="10.22.1.0/25 - vpe3" style="sketch=0;outlineConnect=0;gradientColor=none;html=1;whiteSpace=wrap;fontSize=12;fontStyle=0;shape=mxgraph.aws4.group;grIcon=mxgraph.aws4.group_subnet;strokeColor=#879196;fillColor=none;verticalAlign=top;align=left;spacingLeft=30;fontColor=#879196;dashed=0;" parent="VoakX362d_o3581oTcXl-4" vertex="1"><mxGeometry x="470" y="288.91999999999985" width="170" height="79.64" as="geometry"/></mxCell><mxCell id="VoakX362d_o3581oTcXl-198" value="" style="aspect=fixed;perimeter=ellipsePerimeter;html=1;align=center;shadow=0;dashed=0;fontColor=#4277BB;labelBackgroundColor=#ffffff;fontSize=12;spacingTop=3;image;image=img/lib/ibm/vpc/LoadBalancerPool.svg;fillColor=#FF0000;" parent="VoakX362d_o3581oTcXl-4" vertex="1"><mxGeometry x="70" y="323.8299999999999" width="29.82" height="29.82" as="geometry"/></mxCell><mxCell id="VoakX362d_o3581oTcXl-199" value="" style="aspect=fixed;perimeter=ellipsePerimeter;html=1;align=center;shadow=0;dashed=0;fontColor=#4277BB;labelBackgroundColor=#ffffff;fontSize=12;spacingTop=3;image;image=img/lib/ibm/vpc/LoadBalancerPool.svg;fillColor=#FF0000;" parent="VoakX362d_o3581oTcXl-4" vertex="1"><mxGeometry x="150" y="323.8299999999999" width="29.82" height="29.82" as="geometry"/></mxCell><mxCell id="VoakX362d_o3581oTcXl-200" value="" style="endArrow=oval;html=1;fontSize=10;strokeColor=#000000;rounded=0;startArrow=oval;startFill=1;endFill=1;" parent="VoakX362d_o3581oTcXl-4" source="VoakX362d_o3581oTcXl-195" edge="1"><mxGeometry width="50" height="50" relative="1" as="geometry"><mxPoint x="530" y="268.55999999999995" as="sourcePoint"/><mxPoint x="710" y="389" as="targetPoint"/><Array as="points"><mxPoint x="125" y="388.55999999999995"/></Array></mxGeometry></mxCell><mxCell id="VoakX362d_o3581oTcXl-201" value="" style="aspect=fixed;perimeter=ellipsePerimeter;html=1;align=center;shadow=0;dashed=0;fontColor=#4277BB;labelBackgroundColor=#ffffff;fontSize=12;spacingTop=3;image;image=img/lib/ibm/vpc/LoadBalancerPool.svg;fillColor=#FF0000;" parent="VoakX362d_o3581oTcXl-4" vertex="1"><mxGeometry x="290" y="328.55999999999995" width="29.82" height="29.82" as="geometry"/></mxCell><mxCell id="VoakX362d_o3581oTcXl-202" value="" style="aspect=fixed;perimeter=ellipsePerimeter;html=1;align=center;shadow=0;dashed=0;fontColor=#4277BB;labelBackgroundColor=#ffffff;fontSize=12;spacingTop=3;image;image=img/lib/ibm/vpc/LoadBalancerPool.svg;fillColor=#FF0000;" parent="VoakX362d_o3581oTcXl-4" vertex="1"><mxGeometry x="360" y="328.55999999999995" width="29.82" height="29.82" as="geometry"/></mxCell><mxCell id="VoakX362d_o3581oTcXl-203" value="" style="aspect=fixed;perimeter=ellipsePerimeter;html=1;align=center;shadow=0;dashed=0;fontColor=#4277BB;labelBackgroundColor=#ffffff;fontSize=12;spacingTop=3;image;image=img/lib/ibm/vpc/LoadBalancerPool.svg;fillColor=#FF0000;" parent="VoakX362d_o3581oTcXl-4" vertex="1"><mxGeometry x="510" y="328.55999999999995" width="29.82" height="29.82" as="geometry"/></mxCell><mxCell id="VoakX362d_o3581oTcXl-204" value="" style="aspect=fixed;perimeter=ellipsePerimeter;html=1;align=center;shadow=0;dashed=0;fontColor=#4277BB;labelBackgroundColor=#ffffff;fontSize=12;spacingTop=3;image;image=img/lib/ibm/vpc/LoadBalancerPool.svg;fillColor=#FF0000;" parent="VoakX362d_o3581oTcXl-4" vertex="1"><mxGeometry x="580" y="328.55999999999995" width="29.82" height="29.82" as="geometry"/></mxCell><mxCell id="VoakX362d_o3581oTcXl-205" value="" style="endArrow=oval;html=1;fontSize=10;strokeColor=#000000;rounded=0;startArrow=oval;startFill=1;endFill=1;" parent="VoakX362d_o3581oTcXl-4" source="VoakX362d_o3581oTcXl-196" edge="1"><mxGeometry width="50" height="50" relative="1" as="geometry"><mxPoint x="135" y="378.55999999999995" as="sourcePoint"/><mxPoint x="710" y="389" as="targetPoint"/><Array as="points"><mxPoint x="340" y="388.55999999999995"/></Array></mxGeometry></mxCell><mxCell id="VoakX362d_o3581oTcXl-206" value="" style="endArrow=oval;html=1;fontSize=10;strokeColor=#000000;rounded=0;startArrow=oval;startFill=1;endFill=1;entryX=0;entryY=0.714;entryDx=0;entryDy=0;entryPerimeter=0;" parent="VoakX362d_o3581oTcXl-4" source="VoakX362d_o3581oTcXl-197" target="VoakX362d_o3581oTcXl-183" edge="1"><mxGeometry width="50" height="50" relative="1" as="geometry"><mxPoint x="135" y="378.55999999999995" as="sourcePoint"/><mxPoint x="680" y="388.55999999999995" as="targetPoint"/><Array as="points"><mxPoint x="555" y="388.55999999999995"/></Array></mxGeometry></mxCell><mxCell id="VoakX362d_o3581oTcXl-207" value="10.20.1.128/25 - ingress1" style="sketch=0;outlineConnect=0;gradientColor=none;html=1;whiteSpace=wrap;fontSize=12;fontStyle=0;shape=mxgraph.aws4.group;grIcon=mxgraph.aws4.group_subnet;strokeColor=#879196;fillColor=none;verticalAlign=top;align=left;spacingLeft=30;fontColor=#879196;dashed=0;" parent="VoakX362d_o3581oTcXl-4" vertex="1"><mxGeometry x="40" y="428.56" width="170" height="91.44" as="geometry"/></mxCell><mxCell id="VoakX362d_o3581oTcXl-208" value="10.21.1.128/25 - ingress2" style="sketch=0;outlineConnect=0;gradientColor=none;html=1;whiteSpace=wrap;fontSize=12;fontStyle=0;shape=mxgraph.aws4.group;grIcon=mxgraph.aws4.group_subnet;strokeColor=#879196;fillColor=none;verticalAlign=top;align=left;spacingLeft=30;fontColor=#879196;dashed=0;" parent="VoakX362d_o3581oTcXl-4" vertex="1"><mxGeometry x="255" y="428.56" width="170" height="91.44" as="geometry"/></mxCell><mxCell id="VoakX362d_o3581oTcXl-209" value="10.22.1.128/25 - ingress3" style="sketch=0;outlineConnect=0;gradientColor=none;html=1;whiteSpace=wrap;fontSize=12;fontStyle=0;shape=mxgraph.aws4.group;grIcon=mxgraph.aws4.group_subnet;strokeColor=#879196;fillColor=none;verticalAlign=top;align=left;spacingLeft=30;fontColor=#879196;dashed=0;" parent="VoakX362d_o3581oTcXl-4" vertex="1"><mxGeometry x="470" y="428.56" width="170" height="91.44" as="geometry"/></mxCell><mxCell id="VoakX362d_o3581oTcXl-210" value="" style="aspect=fixed;perimeter=ellipsePerimeter;html=1;align=center;shadow=0;dashed=0;fontColor=#4277BB;labelBackgroundColor=#ffffff;fontSize=12;spacingTop=3;image;image=img/lib/ibm/vpc/LoadBalancer.svg;" parent="VoakX362d_o3581oTcXl-4" vertex="1"><mxGeometry x="100" y="463.55999999999995" width="40" height="40" as="geometry"/></mxCell><mxCell id="VoakX362d_o3581oTcXl-212" value="" style="aspect=fixed;perimeter=ellipsePerimeter;html=1;align=center;shadow=0;dashed=0;fontColor=#4277BB;labelBackgroundColor=#ffffff;fontSize=12;spacingTop=3;image;image=img/lib/ibm/vpc/LoadBalancer.svg;" parent="VoakX362d_o3581oTcXl-4" vertex="1"><mxGeometry x="320" y="463.55999999999995" width="40" height="40" as="geometry"/></mxCell><mxCell id="VoakX362d_o3581oTcXl-214" value="" style="aspect=fixed;perimeter=ellipsePerimeter;html=1;align=center;shadow=0;dashed=0;fontColor=#4277BB;labelBackgroundColor=#ffffff;fontSize=12;spacingTop=3;image;image=img/lib/ibm/vpc/LoadBalancer.svg;" parent="VoakX362d_o3581oTcXl-4" vertex="1"><mxGeometry x="535" y="463.55999999999995" width="40" height="40" as="geometry"/></mxCell><mxCell id="VoakX362d_o3581oTcXl-148" value="ACL: vpe" style="shape=mxgraph.ibm.box;prType=subnet;fontStyle=0;verticalAlign=top;align=left;spacingLeft=32;spacingTop=4;fillColor=#E6F0E2;rounded=0;whiteSpace=wrap;html=1;strokeColor=#00882B;strokeWidth=1;dashed=0;container=1;spacing=-4;collapsible=0;expand=0;recursiveResize=0;fontSize=10;" parent="VoakX362d_o3581oTcXl-1" vertex="1"><mxGeometry x="170" y="840" width="620" height="125.36" as="geometry"/></mxCell><mxCell id="VoakX362d_o3581oTcXl-149" value="10.10.1.0/25 - vpe1" style="sketch=0;outlineConnect=0;gradientColor=none;html=1;whiteSpace=wrap;fontSize=12;fontStyle=0;shape=mxgraph.aws4.group;grIcon=mxgraph.aws4.group_subnet;strokeColor=#879196;fillColor=none;verticalAlign=top;align=left;spacingLeft=30;fontColor=#879196;dashed=0;" parent="VoakX362d_o3581oTcXl-1" vertex="1"><mxGeometry x="180" y="875" width="170" height="79.64" as="geometry"/></mxCell><mxCell id="VoakX362d_o3581oTcXl-150" value="10.11.1.0/25 - vpe2" style="sketch=0;outlineConnect=0;gradientColor=none;html=1;whiteSpace=wrap;fontSize=12;fontStyle=0;shape=mxgraph.aws4.group;grIcon=mxgraph.aws4.group_subnet;strokeColor=#879196;fillColor=none;verticalAlign=top;align=left;spacingLeft=30;fontColor=#879196;dashed=0;" parent="VoakX362d_o3581oTcXl-1" vertex="1"><mxGeometry x="395" y="875" width="170" height="79.64" as="geometry"/></mxCell><mxCell id="VoakX362d_o3581oTcXl-151" value="10.12.1.0/25 - vpe3" style="sketch=0;outlineConnect=0;gradientColor=none;html=1;whiteSpace=wrap;fontSize=12;fontStyle=0;shape=mxgraph.aws4.group;grIcon=mxgraph.aws4.group_subnet;strokeColor=#879196;fillColor=none;verticalAlign=top;align=left;spacingLeft=30;fontColor=#879196;dashed=0;" parent="VoakX362d_o3581oTcXl-1" vertex="1"><mxGeometry x="610" y="875" width="170" height="79.64" as="geometry"/></mxCell><mxCell id="VoakX362d_o3581oTcXl-153" value="" style="aspect=fixed;perimeter=ellipsePerimeter;html=1;align=center;shadow=0;dashed=0;fontColor=#4277BB;labelBackgroundColor=#ffffff;fontSize=12;spacingTop=3;image;image=img/lib/ibm/vpc/LoadBalancerPool.svg;fillColor=#FF0000;" parent="VoakX362d_o3581oTcXl-1" vertex="1"><mxGeometry x="210" y="909.91" width="29.82" height="29.82" as="geometry"/></mxCell><mxCell id="VoakX362d_o3581oTcXl-154" value="" style="aspect=fixed;perimeter=ellipsePerimeter;html=1;align=center;shadow=0;dashed=0;fontColor=#4277BB;labelBackgroundColor=#ffffff;fontSize=12;spacingTop=3;image;image=img/lib/ibm/vpc/LoadBalancerPool.svg;fillColor=#FF0000;" parent="VoakX362d_o3581oTcXl-1" vertex="1"><mxGeometry x="290" y="909.91" width="29.82" height="29.82" as="geometry"/></mxCell><mxCell id="VoakX362d_o3581oTcXl-162" value="" style="endArrow=oval;html=1;fontSize=10;strokeColor=#000000;rounded=0;startArrow=oval;startFill=1;endFill=1;" parent="VoakX362d_o3581oTcXl-1" source="VoakX362d_o3581oTcXl-149" edge="1"><mxGeometry width="50" height="50" relative="1" as="geometry"><mxPoint x="710" y="814.64" as="sourcePoint"/><mxPoint x="850" y="974" as="targetPoint"/><Array as="points"><mxPoint x="265" y="974.64"/></Array></mxGeometry></mxCell><mxCell id="VoakX362d_o3581oTcXl-155" value="" style="aspect=fixed;perimeter=ellipsePerimeter;html=1;align=center;shadow=0;dashed=0;fontColor=#4277BB;labelBackgroundColor=#ffffff;fontSize=12;spacingTop=3;image;image=img/lib/ibm/vpc/LoadBalancerPool.svg;fillColor=#FF0000;" parent="VoakX362d_o3581oTcXl-1" vertex="1"><mxGeometry x="430" y="909.91" width="29.82" height="29.82" as="geometry"/></mxCell><mxCell id="VoakX362d_o3581oTcXl-156" value="" style="aspect=fixed;perimeter=ellipsePerimeter;html=1;align=center;shadow=0;dashed=0;fontColor=#4277BB;labelBackgroundColor=#ffffff;fontSize=12;spacingTop=3;image;image=img/lib/ibm/vpc/LoadBalancerPool.svg;fillColor=#FF0000;" parent="VoakX362d_o3581oTcXl-1" vertex="1"><mxGeometry x="500" y="909.91" width="29.82" height="29.82" as="geometry"/></mxCell><mxCell id="VoakX362d_o3581oTcXl-157" value="" style="aspect=fixed;perimeter=ellipsePerimeter;html=1;align=center;shadow=0;dashed=0;fontColor=#4277BB;labelBackgroundColor=#ffffff;fontSize=12;spacingTop=3;image;image=img/lib/ibm/vpc/LoadBalancerPool.svg;fillColor=#FF0000;" parent="VoakX362d_o3581oTcXl-1" vertex="1"><mxGeometry x="650" y="909.91" width="29.82" height="29.82" as="geometry"/></mxCell><mxCell id="VoakX362d_o3581oTcXl-158" value="" style="aspect=fixed;perimeter=ellipsePerimeter;html=1;align=center;shadow=0;dashed=0;fontColor=#4277BB;labelBackgroundColor=#ffffff;fontSize=12;spacingTop=3;image;image=img/lib/ibm/vpc/LoadBalancerPool.svg;fillColor=#FF0000;" parent="VoakX362d_o3581oTcXl-1" vertex="1"><mxGeometry x="720" y="909.91" width="29.82" height="29.82" as="geometry"/></mxCell><mxCell id="VoakX362d_o3581oTcXl-264" value="" style="aspect=fixed;perimeter=ellipsePerimeter;html=1;align=center;shadow=0;dashed=0;fontColor=#4277BB;labelBackgroundColor=#ffffff;fontSize=12;spacingTop=3;image;image=img/lib/ibm/vpc/LoadBalancer.svg;" parent="VoakX362d_o3581oTcXl-1" vertex="1"><mxGeometry x="50" y="1535" width="40" height="40" as="geometry"/></mxCell><mxCell id="VoakX362d_o3581oTcXl-265" value="Private LB" style="text;html=1;align=center;verticalAlign=middle;resizable=0;points=[];autosize=1;strokeColor=none;fillColor=none;fontSize=10;" parent="VoakX362d_o3581oTcXl-1" vertex="1"><mxGeometry x="30" y="1575" width="60" height="20" as="geometry"/></mxCell><mxCell id="VoakX362d_o3581oTcXl-272" value="" style="endArrow=oval;html=1;fontSize=10;strokeColor=#000000;rounded=0;startArrow=oval;startFill=1;endFill=1;" parent="VoakX362d_o3581oTcXl-1" source="VoakX362d_o3581oTcXl-150" edge="1"><mxGeometry width="50" height="50" relative="1" as="geometry"><mxPoint x="275" y="964.6399999999999" as="sourcePoint"/><mxPoint x="850" y="975" as="targetPoint"/><Array as="points"><mxPoint x="480" y="975"/></Array></mxGeometry></mxCell><mxCell id="VoakX362d_o3581oTcXl-273" value="" style="endArrow=oval;html=1;fontSize=10;strokeColor=#000000;rounded=0;startArrow=oval;startFill=1;endFill=1;entryX=0;entryY=0.937;entryDx=0;entryDy=0;entryPerimeter=0;" parent="VoakX362d_o3581oTcXl-1" source="VoakX362d_o3581oTcXl-151" target="VoakX362d_o3581oTcXl-159" edge="1"><mxGeometry width="50" height="50" relative="1" as="geometry"><mxPoint x="490" y="964.6399999999999" as="sourcePoint"/><mxPoint x="820" y="975" as="targetPoint"/><Array as="points"><mxPoint x="695" y="975"/></Array></mxGeometry></mxCell><mxCell id="VoakX362d_o3581oTcXl-276" value="" style="endArrow=classic;startArrow=classic;html=1;fontSize=10;strokeColor=#000000;rounded=0;" parent="VoakX362d_o3581oTcXl-1" target="VoakX362d_o3581oTcXl-109" edge="1"><mxGeometry width="50" height="50" relative="1" as="geometry"><mxPoint x="920" y="690" as="sourcePoint"/><mxPoint x="500" y="520" as="targetPoint"/><Array as="points"><mxPoint x="1050" y="690"/></Array></mxGeometry></mxCell><mxCell id="VoakX362d_o3581oTcXl-277" value="" style="endArrow=classic;startArrow=classic;html=1;fontSize=10;strokeColor=#000000;rounded=0;" parent="VoakX362d_o3581oTcXl-1" target="VoakX362d_o3581oTcXl-109" edge="1"><mxGeometry width="50" height="50" relative="1" as="geometry"><mxPoint x="920" y="1540" as="sourcePoint"/><mxPoint x="500" y="830" as="targetPoint"/><Array as="points"><mxPoint x="1050" y="1540"/></Array></mxGeometry></mxCell><mxCell id="VoakX362d_o3581oTcXl-224" value="Cloud Services" style="fontStyle=0;verticalAlign=top;align=center;spacingTop=-2;fillColor=none;rounded=0;whiteSpace=wrap;html=1;strokeColor=#4376BB;strokeWidth=1;dashed=0;container=1;collapsible=0;expand=0;recursiveResize=0;fontSize=10;" parent="VoakX362d_o3581oTcXl-1" vertex="1"><mxGeometry x="940" y="820" width="90" height="680" as="geometry"/></mxCell><mxCell id="VoakX362d_o3581oTcXl-270" value="Logging" style="aspect=fixed;perimeter=ellipsePerimeter;html=1;align=center;shadow=0;dashed=0;labelBackgroundColor=#ffffff;fontSize=12;spacingTop=3;image;image=img/lib/ibm/infrastructure/monitoring_logging.svg;fillColor=#FF0000;" parent="VoakX362d_o3581oTcXl-224" vertex="1"><mxGeometry x="25" y="140" width="40" height="40" as="geometry"/></mxCell><mxCell id="VoakX362d_o3581oTcXl-278" value="&lt;font color=&quot;#000000&quot;&gt;Object&lt;br&gt;Storage&lt;/font&gt;" style="aspect=fixed;perimeter=ellipsePerimeter;html=1;align=center;shadow=0;dashed=0;fontColor=#4277BB;labelBackgroundColor=#ffffff;fontSize=12;spacingTop=3;image;image=img/lib/ibm/vpc/ObjectStorage.svg;fillColor=#FF0000;" parent="VoakX362d_o3581oTcXl-224" vertex="1"><mxGeometry x="25" y="360" width="40" height="40" as="geometry"/></mxCell><mxCell id="VoakX362d_o3581oTcXl-281" value="Activity&lt;br&gt;Tracker" style="aspect=fixed;perimeter=ellipsePerimeter;html=1;align=center;shadow=0;dashed=0;labelBackgroundColor=#ffffff;fontSize=12;spacingTop=3;image;image=img/lib/ibm/management/monitoring_metrics.svg;fillColor=#FF0000;" parent="VoakX362d_o3581oTcXl-224" vertex="1"><mxGeometry x="25" y="250" width="40" height="40" as="geometry"/></mxCell><mxCell id="VoakX362d_o3581oTcXl-279" value="Monitoring" style="aspect=fixed;perimeter=ellipsePerimeter;html=1;align=center;shadow=0;dashed=0;labelBackgroundColor=#ffffff;fontSize=12;spacingTop=3;image;image=img/lib/ibm/infrastructure/monitoring.svg;fillColor=#FF0000;" parent="VoakX362d_o3581oTcXl-224" vertex="1"><mxGeometry x="25" y="30" width="40" height="40" as="geometry"/></mxCell><mxCell id="VoakX362d_o3581oTcXl-284" value="" style="group" parent="VoakX362d_o3581oTcXl-224" vertex="1" connectable="0"><mxGeometry x="25" y="590" width="40" height="40" as="geometry"/></mxCell><mxCell id="VoakX362d_o3581oTcXl-283" value="" style="ellipse;whiteSpace=wrap;html=1;aspect=fixed;fontSize=10;fontColor=#000000;align=center;strokeColor=#7DBC41;fillColor=#FFFFFF;strokeWidth=3;" parent="VoakX362d_o3581oTcXl-284" vertex="1"><mxGeometry width="40" height="40" as="geometry"/></mxCell><mxCell id="VoakX362d_o3581oTcXl-282" value="Certificate&#10;Manager" style="shape=image;verticalLabelPosition=bottom;labelBackgroundColor=#ffffff;verticalAlign=top;aspect=fixed;imageAspect=0;image=data:image/svg+xml,PHN2ZyB4bWxucz0iaHR0cDovL3d3dy53My5vcmcvMjAwMC9zdmciIHhtbG5zOnhsaW5rPSJodHRwOi8vd3d3LnczLm9yZy8xOTk5L3hsaW5rIiB2ZXJzaW9uPSIxLjEiIGlkPSJMYXllcl8xIiB4PSIwcHgiIHk9IjBweCIgd2lkdGg9IjI0IiBoZWlnaHQ9IjMwIiB2aWV3Qm94PSI4IC0zIDI0IDMwIiBzdHlsZT0iZW5hYmxlLWJhY2tncm91bmQ6bmV3IDQgLTQgMzIgMzI7IiB4bWw6c3BhY2U9InByZXNlcnZlIj4mI3hhOzxzdHlsZSB0eXBlPSJ0ZXh0L2NzcyI+JiN4YTsJLnN0MHtmaWxsOnVybCgjU1ZHSURfMV8pO30mI3hhOwkuc3Qxe2ZpbGw6IzAwQUE1RTt9JiN4YTs8L3N0eWxlPiYjeGE7PGxpbmVhckdyYWRpZW50IGlkPSJTVkdJRF8xXyIgZ3JhZGllbnRVbml0cz0idXNlclNwYWNlT25Vc2UiIHgxPSIxNS43NjYyIiB5MT0iMTAuNzY2MSIgeDI9IjI0LjIxNTUiIHkyPSIxOS4yMTU1IiBncmFkaWVudFRyYW5zZm9ybT0ibWF0cml4KDEgMCAwIC0xIDAgMjQpIj4mI3hhOwk8c3RvcCBvZmZzZXQ9IjAiIHN0eWxlPSJzdG9wLWNvbG9yOiM4OUVEQTAiLz4mI3hhOwk8c3RvcCBvZmZzZXQ9IjAuNDk5IiBzdHlsZT0ic3RvcC1jb2xvcjojODlFREEwIi8+JiN4YTsJPHN0b3Agb2Zmc2V0PSIwLjUiIHN0eWxlPSJzdG9wLWNvbG9yOiMwMEFBNUUiLz4mI3hhOwk8c3RvcCBvZmZzZXQ9IjAuOTk4NyIgc3R5bGU9InN0b3AtY29sb3I6IzAwQUE1RSIvPiYjeGE7PC9saW5lYXJHcmFkaWVudD4mI3hhOzxjaXJjbGUgY2xhc3M9InN0MCIgY3g9IjIwIiBjeT0iOSIgcj0iNiIvPiYjeGE7PHBhdGggY2xhc3M9InN0MSIgZD0iTTMyLDljMC02LjYtNS40LTEyLTEyLTEyQzEzLjQtMyw4LDIuNCw4LDljMCwzLDEuMSw1LjgsMyw3LjlWMjF2Nmw5LTVsOSw1di01LjNWMjF2LTQuMUMzMC45LDE0LjgsMzIsMTIsMzIsOXomIzEwOyYjOTsgTTIwLTFjNS41LDAsMTAsNC41LDEwLDEwYzAsNS41LTQuNSwxMC0xMCwxMGMtNS41LDAtMTAtNC41LTEwLTEwQzEwLDMuNSwxNC41LTEsMjAtMXoiLz4mI3hhOzwvc3ZnPg==;" parent="VoakX362d_o3581oTcXl-284" vertex="1"><mxGeometry x="8" y="5" width="24" height="30" as="geometry"/></mxCell><mxCell id="VoakX362d_o3581oTcXl-280" value="Key &lt;br&gt;Management" style="aspect=fixed;perimeter=ellipsePerimeter;html=1;align=center;shadow=0;dashed=0;labelBackgroundColor=#ffffff;fontSize=12;spacingTop=3;image;image=img/lib/ibm/vpc/Key.svg;fillColor=#FF0000;" parent="VoakX362d_o3581oTcXl-1" vertex="1"><mxGeometry x="965" y="1290" width="40" height="40" as="geometry"/></mxCell><mxCell id="VoakX362d_o3581oTcXl-286" value="" style="endArrow=oval;html=1;fontSize=10;fontColor=#000000;strokeColor=#000000;exitX=1;exitY=0.928;exitDx=0;exitDy=0;exitPerimeter=0;entryX=0;entryY=0.226;entryDx=0;entryDy=0;entryPerimeter=0;startArrow=oval;startFill=1;endFill=1;" parent="VoakX362d_o3581oTcXl-1" source="VoakX362d_o3581oTcXl-159" target="VoakX362d_o3581oTcXl-224" edge="1"><mxGeometry width="50" height="50" relative="1" as="geometry"><mxPoint x="1000" y="1110" as="sourcePoint"/><mxPoint x="1050" y="1060" as="targetPoint"/></mxGeometry></mxCell><mxCell id="VoakX362d_o3581oTcXl-289" value="" style="endArrow=classic;html=1;fontSize=10;strokeColor=#000000;" parent="VoakX362d_o3581oTcXl-1" source="VoakX362d_o3581oTcXl-264" target="VoakX362d_o3581oTcXl-214" edge="1"><mxGeometry width="50" height="50" relative="1" as="geometry"><mxPoint x="80.00476387438209" y="1700.004669424135" as="sourcePoint"/><mxPoint x="693.38" y="1709.4500000000003" as="targetPoint"/><Array as="points"><mxPoint x="120" y="1620"/><mxPoint x="695" y="1620"/></Array></mxGeometry></mxCell><mxCell id="VoakX362d_o3581oTcXl-287" value="" style="endArrow=classic;html=1;fontSize=10;strokeColor=#000000;" parent="VoakX362d_o3581oTcXl-1" source="VoakX362d_o3581oTcXl-264" target="VoakX362d_o3581oTcXl-210" edge="1"><mxGeometry width="50" height="50" relative="1" as="geometry"><mxPoint x="80.00476387438209" y="1700.004669424135" as="sourcePoint"/><mxPoint x="258.38" y="1709.4500000000003" as="targetPoint"/><Array as="points"><mxPoint x="120" y="1620"/><mxPoint x="260" y="1620"/></Array></mxGeometry></mxCell><mxCell id="VoakX362d_o3581oTcXl-288" value="" style="endArrow=classic;html=1;fontSize=10;strokeColor=#000000;" parent="VoakX362d_o3581oTcXl-1" source="VoakX362d_o3581oTcXl-264" target="VoakX362d_o3581oTcXl-212" edge="1"><mxGeometry width="50" height="50" relative="1" as="geometry"><mxPoint x="80.00476387438209" y="1700.004669424135" as="sourcePoint"/><mxPoint x="478.38" y="1709.4500000000003" as="targetPoint"/><Array as="points"><mxPoint x="120" y="1620"/><mxPoint x="480" y="1620"/></Array></mxGeometry></mxCell><mxCell id="VoakX362d_o3581oTcXl-295" value="Transit&lt;br&gt;Gateway" style="text;html=1;strokeColor=none;fillColor=none;align=center;verticalAlign=middle;whiteSpace=wrap;rounded=0;fontSize=10;fontColor=#000000;" parent="VoakX362d_o3581oTcXl-1" vertex="1"><mxGeometry x="990" y="540" width="40" height="40" as="geometry"/></mxCell><mxCell id="3A7IAFDjcURwmV4KXYfe-2" value="" style="aspect=fixed;perimeter=ellipsePerimeter;html=1;align=center;shadow=0;dashed=0;fontColor=#4277BB;labelBackgroundColor=#ffffff;fontSize=12;spacingTop=3;image;image=img/lib/ibm/infrastructure/edge_services.svg;" parent="VoakX362d_o3581oTcXl-1" vertex="1"><mxGeometry x="50" y="550" width="40" height="40" as="geometry"/></mxCell><mxCell id="3A7IAFDjcURwmV4KXYfe-3" value="Cloud Internet Services" style="text;html=1;strokeColor=none;fillColor=none;align=center;verticalAlign=middle;whiteSpace=wrap;rounded=0;fontSize=12;" parent="VoakX362d_o3581oTcXl-1" vertex="1"><mxGeometry x="40" y="500" width="60" height="50" as="geometry"/></mxCell><mxCell id="3A7IAFDjcURwmV4KXYfe-5" value="" style="endArrow=classic;html=1;rounded=0;fontSize=12;" parent="VoakX362d_o3581oTcXl-1" source="3A7IAFDjcURwmV4KXYfe-2" target="VoakX362d_o3581oTcXl-264" edge="1"><mxGeometry width="50" height="50" relative="1" as="geometry"><mxPoint x="300" y="850" as="sourcePoint"/><mxPoint x="70" y="1060" as="targetPoint"/></mxGeometry></mxCell><mxCell id="VoakX362d_o3581oTcXl-285" value="" style="endArrow=oval;html=1;fontSize=10;fontColor=#000000;strokeColor=#000000;startArrow=oval;startFill=1;endFill=1;exitX=0.98;exitY=0.285;exitDx=0;exitDy=0;exitPerimeter=0;" parent="VoakX362d_o3581oTcXl-1" source="VoakX362d_o3581oTcXl-183" edge="1"><mxGeometry width="50" height="50" relative="1" as="geometry"><mxPoint x="900" y="1420.36" as="sourcePoint"/><mxPoint x="940" y="1330" as="targetPoint"/></mxGeometry></mxCell><mxCell id="VoakX362d_o3581oTcXl-2" value="edge (VPC)" style="shape=mxgraph.ibm.box;prType=vpc;fontStyle=0;verticalAlign=top;align=left;spacingLeft=32;spacingTop=4;fillColor=none;rounded=0;whiteSpace=wrap;html=1;strokeColor=#4376BB;strokeWidth=2;dashed=0;container=1;spacing=-4;collapsible=0;expand=0;recursiveResize=0;" parent="1" vertex="1"><mxGeometry x="100" y="-180" width="780" height="520" as="geometry"/></mxCell><mxCell id="VoakX362d_o3581oTcXl-5" value="Zone 1 - 10.1.0.0/24" style="shape=mxgraph.ibm.box;prType=zone;fontStyle=0;verticalAlign=top;align=left;spacingLeft=32;spacingTop=4;fillColor=#E0E0E0;rounded=0;whiteSpace=wrap;html=1;strokeColor=#919191;strokeWidth=1;dashed=0;container=1;spacing=-4;collapsible=0;expand=0;recursiveResize=0;" parent="VoakX362d_o3581oTcXl-2" vertex="1"><mxGeometry x="20" y="30" width="200" height="480" as="geometry"/></mxCell><mxCell id="VoakX362d_o3581oTcXl-6" value="Zone 2 - 10.2.0.0/24" style="shape=mxgraph.ibm.box;prType=zone;fontStyle=0;verticalAlign=top;align=left;spacingLeft=32;spacingTop=4;fillColor=#E0E0E0;rounded=0;whiteSpace=wrap;html=1;strokeColor=#919191;strokeWidth=1;dashed=0;container=1;spacing=-4;collapsible=0;expand=0;recursiveResize=0;" parent="VoakX362d_o3581oTcXl-2" vertex="1"><mxGeometry x="240" y="30" width="200" height="480" as="geometry"/></mxCell><mxCell id="VoakX362d_o3581oTcXl-7" value="Zone 3 - 10.3.0.0/24" style="shape=mxgraph.ibm.box;prType=zone;fontStyle=0;verticalAlign=top;align=left;spacingLeft=32;spacingTop=4;fillColor=#E0E0E0;rounded=0;whiteSpace=wrap;html=1;strokeColor=#919191;strokeWidth=1;dashed=0;container=1;spacing=-4;collapsible=0;expand=0;recursiveResize=0;" parent="VoakX362d_o3581oTcXl-2" vertex="1"><mxGeometry x="460" y="30" width="200" height="480" as="geometry"/></mxCell><mxCell id="VoakX362d_o3581oTcXl-68" value="ACL: egress" style="shape=mxgraph.ibm.box;prType=subnet;fontStyle=0;verticalAlign=top;align=left;spacingLeft=32;spacingTop=4;fillColor=#E6F0E2;rounded=0;whiteSpace=wrap;html=1;strokeColor=#00882B;strokeWidth=1;dashed=0;container=1;spacing=-4;collapsible=0;expand=0;recursiveResize=0;fontSize=10;" parent="VoakX362d_o3581oTcXl-7" vertex="1"><mxGeometry x="-430" y="330" width="620" height="140" as="geometry"/></mxCell><mxCell id="VoakX362d_o3581oTcXl-100" value="Public GW" style="text;html=1;align=center;verticalAlign=middle;resizable=0;points=[];autosize=1;strokeColor=none;fillColor=none;fontSize=10;" parent="VoakX362d_o3581oTcXl-68" vertex="1"><mxGeometry x="120" width="60" height="20" as="geometry"/></mxCell><mxCell id="VoakX362d_o3581oTcXl-102" value="Public GW" style="text;html=1;align=center;verticalAlign=middle;resizable=0;points=[];autosize=1;strokeColor=none;fillColor=none;fontSize=10;" parent="VoakX362d_o3581oTcXl-68" vertex="1"><mxGeometry x="340" width="60" height="20" as="geometry"/></mxCell><mxCell id="VoakX362d_o3581oTcXl-103" value="Public GW" style="text;html=1;align=center;verticalAlign=middle;resizable=0;points=[];autosize=1;strokeColor=none;fillColor=none;fontSize=10;" parent="VoakX362d_o3581oTcXl-68" vertex="1"><mxGeometry x="550" width="60" height="20" as="geometry"/></mxCell><mxCell id="VoakX362d_o3581oTcXl-69" value="&lt;font style=&quot;font-size: 11px&quot;&gt;10.1.0.128/26 - egress01&lt;/font&gt;" style="sketch=0;outlineConnect=0;gradientColor=none;html=1;whiteSpace=wrap;fontSize=12;fontStyle=0;shape=mxgraph.aws4.group;grIcon=mxgraph.aws4.group_subnet;strokeColor=#879196;fillColor=none;verticalAlign=top;align=left;spacingLeft=30;fontColor=#879196;dashed=0;" parent="VoakX362d_o3581oTcXl-7" vertex="1"><mxGeometry x="-420" y="360" width="170" height="100" as="geometry"/></mxCell><mxCell id="VoakX362d_o3581oTcXl-70" value="&lt;font style=&quot;font-size: 11px&quot;&gt;10.2.0.128/26 - egress02&lt;/font&gt;" style="sketch=0;outlineConnect=0;gradientColor=none;html=1;whiteSpace=wrap;fontSize=12;fontStyle=0;shape=mxgraph.aws4.group;grIcon=mxgraph.aws4.group_subnet;strokeColor=#879196;fillColor=none;verticalAlign=top;align=left;spacingLeft=30;fontColor=#879196;dashed=0;" parent="VoakX362d_o3581oTcXl-7" vertex="1"><mxGeometry x="-210" y="360" width="180" height="100" as="geometry"/></mxCell><mxCell id="VoakX362d_o3581oTcXl-73" value="&lt;font style=&quot;font-size: 11px&quot;&gt;10.3.0.128/26 - egress03&lt;/font&gt;" style="sketch=0;outlineConnect=0;gradientColor=none;html=1;whiteSpace=wrap;fontSize=12;fontStyle=0;shape=mxgraph.aws4.group;grIcon=mxgraph.aws4.group_subnet;strokeColor=#879196;fillColor=none;verticalAlign=top;align=left;spacingLeft=30;fontColor=#879196;dashed=0;" parent="VoakX362d_o3581oTcXl-7" vertex="1"><mxGeometry x="10" y="360" width="170" height="100" as="geometry"/></mxCell><mxCell id="VoakX362d_o3581oTcXl-97" value="" style="aspect=fixed;perimeter=ellipsePerimeter;html=1;align=center;shadow=0;dashed=0;fontColor=#4277BB;labelBackgroundColor=#ffffff;fontSize=12;spacingTop=3;image;image=img/lib/ibm/vpc/PublicGateway.svg;fillColor=#FF0000;" parent="VoakX362d_o3581oTcXl-7" vertex="1"><mxGeometry x="160" y="350" width="30" height="30" as="geometry"/></mxCell><mxCell id="VoakX362d_o3581oTcXl-98" value="" style="aspect=fixed;perimeter=ellipsePerimeter;html=1;align=center;shadow=0;dashed=0;fontColor=#4277BB;labelBackgroundColor=#ffffff;fontSize=12;spacingTop=3;image;image=img/lib/ibm/vpc/PublicGateway.svg;fillColor=#FF0000;" parent="VoakX362d_o3581oTcXl-7" vertex="1"><mxGeometry x="-50" y="350" width="30" height="30" as="geometry"/></mxCell><mxCell id="VoakX362d_o3581oTcXl-99" value="" style="aspect=fixed;perimeter=ellipsePerimeter;html=1;align=center;shadow=0;dashed=0;fontColor=#4277BB;labelBackgroundColor=#ffffff;fontSize=12;spacingTop=3;image;image=img/lib/ibm/vpc/PublicGateway.svg;fillColor=#FF0000;" parent="VoakX362d_o3581oTcXl-7" vertex="1"><mxGeometry x="-270" y="350" width="30" height="30" as="geometry"/></mxCell><mxCell id="VoakX362d_o3581oTcXl-40" value="" style="aspect=fixed;perimeter=ellipsePerimeter;html=1;align=center;shadow=0;dashed=0;fontColor=#4277BB;labelBackgroundColor=#ffffff;fontSize=12;spacingTop=3;image;image=img/lib/ibm/vpc/Instance.svg;fillColor=#FF0000;" parent="VoakX362d_o3581oTcXl-7" vertex="1"><mxGeometry x="-310" y="410" width="40" height="40" as="geometry"/></mxCell><mxCell id="VoakX362d_o3581oTcXl-76" value="" style="aspect=fixed;perimeter=ellipsePerimeter;html=1;align=center;shadow=0;dashed=0;fontColor=#4277BB;labelBackgroundColor=#ffffff;fontSize=12;spacingTop=3;image;image=img/lib/ibm/vpc/LoadBalancer.svg;" parent="VoakX362d_o3581oTcXl-7" vertex="1"><mxGeometry x="-390" y="410" width="40" height="40" as="geometry"/></mxCell><mxCell id="VoakX362d_o3581oTcXl-86" value="" style="endArrow=classic;html=1;fontSize=10;" parent="VoakX362d_o3581oTcXl-7" source="VoakX362d_o3581oTcXl-76" target="VoakX362d_o3581oTcXl-40" edge="1"><mxGeometry width="50" height="50" relative="1" as="geometry"><mxPoint x="-530" y="590" as="sourcePoint"/><mxPoint x="-480" y="540" as="targetPoint"/></mxGeometry></mxCell><mxCell id="VoakX362d_o3581oTcXl-87" value="" style="aspect=fixed;perimeter=ellipsePerimeter;html=1;align=center;shadow=0;dashed=0;fontColor=#4277BB;labelBackgroundColor=#ffffff;fontSize=12;spacingTop=3;image;image=img/lib/ibm/vpc/Instance.svg;fillColor=#FF0000;" parent="VoakX362d_o3581oTcXl-7" vertex="1"><mxGeometry x="120" y="410" width="40" height="40" as="geometry"/></mxCell><mxCell id="VoakX362d_o3581oTcXl-89" value="" style="aspect=fixed;perimeter=ellipsePerimeter;html=1;align=center;shadow=0;dashed=0;fontColor=#4277BB;labelBackgroundColor=#ffffff;fontSize=12;spacingTop=3;image;image=img/lib/ibm/vpc/LoadBalancer.svg;" parent="VoakX362d_o3581oTcXl-7" vertex="1"><mxGeometry x="40" y="410" width="40" height="40" as="geometry"/></mxCell><mxCell id="VoakX362d_o3581oTcXl-91" value="" style="endArrow=classic;html=1;fontSize=10;" parent="VoakX362d_o3581oTcXl-7" source="VoakX362d_o3581oTcXl-89" target="VoakX362d_o3581oTcXl-87" edge="1"><mxGeometry width="50" height="50" relative="1" as="geometry"><mxPoint x="-100" y="590" as="sourcePoint"/><mxPoint x="-50" y="540" as="targetPoint"/></mxGeometry></mxCell><mxCell id="VoakX362d_o3581oTcXl-92" value="" style="aspect=fixed;perimeter=ellipsePerimeter;html=1;align=center;shadow=0;dashed=0;fontColor=#4277BB;labelBackgroundColor=#ffffff;fontSize=12;spacingTop=3;image;image=img/lib/ibm/vpc/Instance.svg;fillColor=#FF0000;" parent="VoakX362d_o3581oTcXl-7" vertex="1"><mxGeometry x="-95" y="410" width="40" height="40" as="geometry"/></mxCell><mxCell id="VoakX362d_o3581oTcXl-94" value="" style="aspect=fixed;perimeter=ellipsePerimeter;html=1;align=center;shadow=0;dashed=0;fontColor=#4277BB;labelBackgroundColor=#ffffff;fontSize=12;spacingTop=3;image;image=img/lib/ibm/vpc/LoadBalancer.svg;" parent="VoakX362d_o3581oTcXl-7" vertex="1"><mxGeometry x="-175" y="410" width="40" height="40" as="geometry"/></mxCell><mxCell id="VoakX362d_o3581oTcXl-96" value="" style="endArrow=classic;html=1;fontSize=10;" parent="VoakX362d_o3581oTcXl-7" source="VoakX362d_o3581oTcXl-94" target="VoakX362d_o3581oTcXl-92" edge="1"><mxGeometry width="50" height="50" relative="1" as="geometry"><mxPoint x="-315" y="590" as="sourcePoint"/><mxPoint x="-265" y="540" as="targetPoint"/></mxGeometry></mxCell><mxCell id="VoakX362d_o3581oTcXl-88" value="Proxy" style="text;html=1;align=center;verticalAlign=middle;resizable=0;points=[];autosize=1;strokeColor=none;fillColor=none;fontSize=10;" parent="VoakX362d_o3581oTcXl-7" vertex="1"><mxGeometry x="120" y="390" width="40" height="20" as="geometry"/></mxCell><mxCell id="VoakX362d_o3581oTcXl-93" value="Proxy" style="text;html=1;align=center;verticalAlign=middle;resizable=0;points=[];autosize=1;strokeColor=none;fillColor=none;fontSize=10;" parent="VoakX362d_o3581oTcXl-7" vertex="1"><mxGeometry x="-95" y="390" width="40" height="20" as="geometry"/></mxCell><mxCell id="VoakX362d_o3581oTcXl-41" value="Proxy" style="text;html=1;align=center;verticalAlign=middle;resizable=0;points=[];autosize=1;strokeColor=none;fillColor=none;fontSize=10;" parent="VoakX362d_o3581oTcXl-7" vertex="1"><mxGeometry x="-310" y="390" width="40" height="20" as="geometry"/></mxCell><mxCell id="VoakX362d_o3581oTcXl-113" value="ACL: ingress" style="shape=mxgraph.ibm.box;prType=subnet;fontStyle=0;verticalAlign=top;align=left;spacingLeft=32;spacingTop=4;fillColor=#E6F0E2;rounded=0;whiteSpace=wrap;html=1;strokeColor=#00882B;strokeWidth=1;dashed=0;container=1;spacing=-4;collapsible=0;expand=0;recursiveResize=0;fontSize=10;" parent="VoakX362d_o3581oTcXl-2" vertex="1"><mxGeometry x="30" y="60" width="620" height="130" as="geometry"/></mxCell><mxCell id="VoakX362d_o3581oTcXl-114" value="&lt;font style=&quot;font-size: 11px&quot;&gt;10.3.0.0/26 - ingress03&lt;/font&gt;" style="sketch=0;outlineConnect=0;gradientColor=none;html=1;whiteSpace=wrap;fontSize=12;fontStyle=0;shape=mxgraph.aws4.group;grIcon=mxgraph.aws4.group_subnet;strokeColor=#879196;fillColor=none;verticalAlign=top;align=left;spacingLeft=30;fontColor=#879196;dashed=0;" parent="VoakX362d_o3581oTcXl-2" vertex="1"><mxGeometry x="470" y="90" width="170" height="90" as="geometry"/></mxCell><mxCell id="VoakX362d_o3581oTcXl-115" value="&lt;font style=&quot;font-size: 11px&quot;&gt;10.2.0.0/26 - ingress02&lt;/font&gt;" style="sketch=0;outlineConnect=0;gradientColor=none;html=1;whiteSpace=wrap;fontSize=12;fontStyle=0;shape=mxgraph.aws4.group;grIcon=mxgraph.aws4.group_subnet;strokeColor=#879196;fillColor=none;verticalAlign=top;align=left;spacingLeft=30;fontColor=#879196;dashed=0;" parent="VoakX362d_o3581oTcXl-2" vertex="1"><mxGeometry x="250" y="90" width="180" height="90" as="geometry"/></mxCell><mxCell id="VoakX362d_o3581oTcXl-116" value="&lt;font&gt;&lt;span style=&quot;font-size: 11px&quot;&gt;&lt;span&gt;&#9;&lt;/span&gt;10.1.0.0/26&amp;nbsp;- ingress01&lt;/span&gt;&lt;/font&gt;" style="sketch=0;outlineConnect=0;gradientColor=none;html=1;whiteSpace=wrap;fontSize=12;fontStyle=0;shape=mxgraph.aws4.group;grIcon=mxgraph.aws4.group_subnet;strokeColor=#879196;fillColor=none;verticalAlign=top;align=left;spacingLeft=30;fontColor=#879196;dashed=0;" parent="VoakX362d_o3581oTcXl-2" vertex="1"><mxGeometry x="40" y="90" width="170" height="90" as="geometry"/></mxCell><mxCell id="VoakX362d_o3581oTcXl-118" value="" style="aspect=fixed;perimeter=ellipsePerimeter;html=1;align=center;shadow=0;dashed=0;fontColor=#4277BB;labelBackgroundColor=#ffffff;fontSize=12;spacingTop=3;image;image=img/lib/ibm/vpc/VPNGateway.svg;" parent="VoakX362d_o3581oTcXl-2" vertex="1"><mxGeometry x="140" y="120" width="40" height="40" as="geometry"/></mxCell><mxCell id="VoakX362d_o3581oTcXl-120" value="VPN Gateway" style="text;html=1;align=center;verticalAlign=middle;resizable=0;points=[];autosize=1;strokeColor=none;fillColor=none;fontSize=10;" parent="VoakX362d_o3581oTcXl-2" vertex="1"><mxGeometry x="120" y="160" width="80" height="20" as="geometry"/></mxCell><mxCell id="VoakX362d_o3581oTcXl-122" value="" style="aspect=fixed;perimeter=ellipsePerimeter;html=1;align=center;shadow=0;dashed=0;fontColor=#4277BB;labelBackgroundColor=#ffffff;fontSize=12;spacingTop=3;image;image=img/lib/ibm/vpc/VPNGateway.svg;" parent="VoakX362d_o3581oTcXl-2" vertex="1"><mxGeometry x="360.00000000000006" y="120" width="40" height="40" as="geometry"/></mxCell><mxCell id="VoakX362d_o3581oTcXl-124" value="VPN Gateway" style="text;html=1;align=center;verticalAlign=middle;resizable=0;points=[];autosize=1;strokeColor=none;fillColor=none;fontSize=10;" parent="VoakX362d_o3581oTcXl-2" vertex="1"><mxGeometry x="340.00000000000006" y="160" width="80" height="20" as="geometry"/></mxCell><mxCell id="VoakX362d_o3581oTcXl-126" value="" style="aspect=fixed;perimeter=ellipsePerimeter;html=1;align=center;shadow=0;dashed=0;fontColor=#4277BB;labelBackgroundColor=#ffffff;fontSize=12;spacingTop=3;image;image=img/lib/ibm/vpc/VPNGateway.svg;" parent="VoakX362d_o3581oTcXl-2" vertex="1"><mxGeometry x="570" y="120" width="40" height="40" as="geometry"/></mxCell><mxCell id="VoakX362d_o3581oTcXl-128" value="VPN Gateway" style="text;html=1;align=center;verticalAlign=middle;resizable=0;points=[];autosize=1;strokeColor=none;fillColor=none;fontSize=10;" parent="VoakX362d_o3581oTcXl-2" vertex="1"><mxGeometry x="550" y="160" width="80" height="20" as="geometry"/></mxCell><mxCell id="VoakX362d_o3581oTcXl-217" value="" style="aspect=fixed;perimeter=ellipsePerimeter;html=1;align=center;shadow=0;dashed=0;fontColor=#4277BB;labelBackgroundColor=#ffffff;fontSize=12;spacingTop=3;image;image=img/lib/ibm/vpc/LoadBalancer.svg;" parent="VoakX362d_o3581oTcXl-2" vertex="1"><mxGeometry x="680" y="260" width="40" height="40" as="geometry"/></mxCell><mxCell id="VoakX362d_o3581oTcXl-218" value="Private LB" style="text;html=1;align=center;verticalAlign=middle;resizable=0;points=[];autosize=1;strokeColor=none;fillColor=none;fontSize=10;" parent="VoakX362d_o3581oTcXl-2" vertex="1"><mxGeometry x="700" y="240" width="60" height="20" as="geometry"/></mxCell><mxCell id="VoakX362d_o3581oTcXl-241" value="" style="aspect=fixed;perimeter=ellipsePerimeter;html=1;align=center;shadow=0;dashed=0;fontColor=#4277BB;labelBackgroundColor=#ffffff;fontSize=12;spacingTop=3;image;image=img/lib/ibm/vpc/LoadBalancer.svg;" parent="VoakX362d_o3581oTcXl-2" vertex="1"><mxGeometry x="670" y="450" width="40" height="40" as="geometry"/></mxCell><mxCell id="VoakX362d_o3581oTcXl-242" value="Private LB" style="text;html=1;align=center;verticalAlign=middle;resizable=0;points=[];autosize=1;strokeColor=none;fillColor=none;fontSize=10;" parent="VoakX362d_o3581oTcXl-2" vertex="1"><mxGeometry x="700" y="430" width="60" height="20" as="geometry"/></mxCell><mxCell id="VoakX362d_o3581oTcXl-243" value="" style="aspect=fixed;perimeter=ellipsePerimeter;html=1;align=center;shadow=0;dashed=0;fontColor=#4277BB;labelBackgroundColor=#ffffff;fontSize=12;spacingTop=3;image;image=img/lib/ibm/vpc/VPNGateway.svg;" parent="VoakX362d_o3581oTcXl-2" vertex="1"><mxGeometry x="65" y="120" width="40" height="40" as="geometry"/></mxCell><mxCell id="VoakX362d_o3581oTcXl-244" value="VPN Server" style="text;html=1;align=center;verticalAlign=middle;resizable=0;points=[];autosize=1;strokeColor=none;fillColor=none;fontSize=10;" parent="VoakX362d_o3581oTcXl-2" vertex="1"><mxGeometry x="50" y="160" width="70" height="20" as="geometry"/></mxCell><mxCell id="VoakX362d_o3581oTcXl-245" value="" style="aspect=fixed;perimeter=ellipsePerimeter;html=1;align=center;shadow=0;dashed=0;fontColor=#4277BB;labelBackgroundColor=#ffffff;fontSize=12;spacingTop=3;image;image=img/lib/ibm/vpc/VPNGateway.svg;" parent="VoakX362d_o3581oTcXl-2" vertex="1"><mxGeometry x="285.00000000000006" y="120" width="40" height="40" as="geometry"/></mxCell><mxCell id="VoakX362d_o3581oTcXl-246" value="VPN Server" style="text;html=1;align=center;verticalAlign=middle;resizable=0;points=[];autosize=1;strokeColor=none;fillColor=none;fontSize=10;" parent="VoakX362d_o3581oTcXl-2" vertex="1"><mxGeometry x="270.00000000000006" y="160" width="70" height="20" as="geometry"/></mxCell><mxCell id="VoakX362d_o3581oTcXl-247" value="" style="aspect=fixed;perimeter=ellipsePerimeter;html=1;align=center;shadow=0;dashed=0;fontColor=#4277BB;labelBackgroundColor=#ffffff;fontSize=12;spacingTop=3;image;image=img/lib/ibm/vpc/VPNGateway.svg;" parent="VoakX362d_o3581oTcXl-2" vertex="1"><mxGeometry x="495.00000000000006" y="120" width="40" height="40" as="geometry"/></mxCell><mxCell id="VoakX362d_o3581oTcXl-248" value="VPN Server" style="text;html=1;align=center;verticalAlign=middle;resizable=0;points=[];autosize=1;strokeColor=none;fillColor=none;fontSize=10;" parent="VoakX362d_o3581oTcXl-2" vertex="1"><mxGeometry x="480.00000000000006" y="160" width="70" height="20" as="geometry"/></mxCell><mxCell id="VoakX362d_o3581oTcXl-261" value="" style="endArrow=classic;html=1;fontSize=10;strokeColor=#000000;rounded=0;" parent="VoakX362d_o3581oTcXl-2" source="VoakX362d_o3581oTcXl-116" target="VoakX362d_o3581oTcXl-217" edge="1"><mxGeometry width="50" height="50" relative="1" as="geometry"><mxPoint x="350.09000000000003" y="300" as="sourcePoint"/><mxPoint x="400.09000000000003" y="250" as="targetPoint"/><Array as="points"><mxPoint x="125.09" y="200"/><mxPoint x="700.09" y="200"/></Array></mxGeometry></mxCell><mxCell id="VoakX362d_o3581oTcXl-260" value="" style="endArrow=classic;html=1;fontSize=10;strokeColor=#000000;rounded=0;" parent="VoakX362d_o3581oTcXl-2" source="VoakX362d_o3581oTcXl-241" target="VoakX362d_o3581oTcXl-76" edge="1"><mxGeometry width="50" height="50" relative="1" as="geometry"><mxPoint x="699.8182232669492" y="449.99996719896626" as="sourcePoint"/><mxPoint x="90.19" y="460.71000000000004" as="targetPoint"/><Array as="points"><mxPoint x="670.09" y="420"/><mxPoint x="90.09" y="420"/></Array></mxGeometry></mxCell><mxCell id="VoakX362d_o3581oTcXl-258" value="" style="endArrow=classic;html=1;fontSize=10;strokeColor=#000000;rounded=0;" parent="VoakX362d_o3581oTcXl-2" source="VoakX362d_o3581oTcXl-241" target="VoakX362d_o3581oTcXl-89" edge="1"><mxGeometry width="50" height="50" relative="1" as="geometry"><mxPoint x="699.8182232669492" y="449.99996719896626" as="sourcePoint"/><mxPoint x="520.09" y="440" as="targetPoint"/><Array as="points"><mxPoint x="670.09" y="420"/><mxPoint x="520.09" y="420"/></Array></mxGeometry></mxCell><mxCell id="VoakX362d_o3581oTcXl-259" value="" style="endArrow=classic;html=1;fontSize=10;strokeColor=#000000;rounded=0;" parent="VoakX362d_o3581oTcXl-2" source="VoakX362d_o3581oTcXl-241" target="VoakX362d_o3581oTcXl-94" edge="1"><mxGeometry width="50" height="50" relative="1" as="geometry"><mxPoint x="699.8182232669492" y="449.99996719896626" as="sourcePoint"/><mxPoint x="310.00999999999976" y="460.71000000000004" as="targetPoint"/><Array as="points"><mxPoint x="670.09" y="420"/><mxPoint x="305.09000000000003" y="420"/></Array></mxGeometry></mxCell><mxCell id="VoakX362d_o3581oTcXl-262" value="" style="endArrow=classic;html=1;fontSize=10;strokeColor=#000000;rounded=0;" parent="VoakX362d_o3581oTcXl-2" source="VoakX362d_o3581oTcXl-115" target="VoakX362d_o3581oTcXl-217" edge="1"><mxGeometry width="50" height="50" relative="1" as="geometry"><mxPoint x="135.06230769230737" y="189.99999999999977" as="sourcePoint"/><mxPoint x="709.9999999999999" y="270" as="targetPoint"/><Array as="points"><mxPoint x="340.09000000000003" y="200"/><mxPoint x="701.09" y="200"/></Array></mxGeometry></mxCell><mxCell id="VoakX362d_o3581oTcXl-263" value="" style="endArrow=classic;html=1;fontSize=10;strokeColor=#000000;rounded=0;" parent="VoakX362d_o3581oTcXl-2" source="VoakX362d_o3581oTcXl-114" target="VoakX362d_o3581oTcXl-217" edge="1"><mxGeometry width="50" height="50" relative="1" as="geometry"><mxPoint x="350.0623076923074" y="189.99999999999977" as="sourcePoint"/><mxPoint x="709.9999999999999" y="270" as="targetPoint"/><Array as="points"><mxPoint x="555.09" y="200"/><mxPoint x="700.09" y="200"/></Array></mxGeometry></mxCell><mxCell id="VoakX362d_o3581oTcXl-104" value="Consumer" style="shape=mxgraph.ibm.box;prType=public;fontStyle=0;verticalAlign=top;align=left;spacingLeft=32;spacingTop=4;fillColor=none;rounded=0;whiteSpace=wrap;html=1;strokeColor=#4376BB;strokeWidth=3;dashed=0;container=1;spacing=-4;collapsible=0;expand=0;recursiveResize=0;fontSize=10;" parent="1" vertex="1"><mxGeometry x="-140" y="120" width="80" height="320" as="geometry"/></mxCell><mxCell id="VoakX362d_o3581oTcXl-106" value="Internet" style="aspect=fixed;perimeter=ellipsePerimeter;html=1;align=center;shadow=0;dashed=0;labelBackgroundColor=#ffffff;fontSize=12;spacingTop=3;image;image=img/lib/ibm/vpc/Internet.svg;fillColor=#FF0000;spacing=0;" parent="VoakX362d_o3581oTcXl-104" vertex="1"><mxGeometry x="20" y="230" width="40" height="40" as="geometry"/></mxCell><mxCell id="VoakX362d_o3581oTcXl-105" value="Users" style="aspect=fixed;perimeter=ellipsePerimeter;html=1;align=center;shadow=0;dashed=0;labelBackgroundColor=#ffffff;fontSize=12;spacingTop=3;image;image=img/lib/ibm/users/user.svg;fillColor=#FF0000;" parent="1" vertex="1"><mxGeometry x="-120" y="160" width="40" height="40" as="geometry"/></mxCell><mxCell id="VoakX362d_o3581oTcXl-107" value="" style="endArrow=classic;html=1;fontSize=10;" parent="1" source="VoakX362d_o3581oTcXl-105" target="VoakX362d_o3581oTcXl-106" edge="1"><mxGeometry width="50" height="50" relative="1" as="geometry"><mxPoint x="160" y="470" as="sourcePoint"/><mxPoint x="210" y="420" as="targetPoint"/></mxGeometry></mxCell><mxCell id="VoakX362d_o3581oTcXl-225" value="ACL: bastion" style="shape=mxgraph.ibm.box;prType=subnet;fontStyle=0;verticalAlign=top;align=left;spacingLeft=32;spacingTop=4;fillColor=#E6F0E2;rounded=0;whiteSpace=wrap;html=1;strokeColor=#00882B;strokeWidth=1;dashed=0;container=1;spacing=-4;collapsible=0;expand=0;recursiveResize=0;fontSize=10;" parent="1" vertex="1"><mxGeometry x="130.09" y="30" width="620" height="130" as="geometry"/></mxCell><mxCell id="VoakX362d_o3581oTcXl-226" value="&lt;font style=&quot;font-size: 11px&quot;&gt;10.3.0.64/26 - bastion03&lt;/font&gt;" style="sketch=0;outlineConnect=0;gradientColor=none;html=1;whiteSpace=wrap;fontSize=12;fontStyle=0;shape=mxgraph.aws4.group;grIcon=mxgraph.aws4.group_subnet;strokeColor=#879196;fillColor=none;verticalAlign=top;align=left;spacingLeft=30;fontColor=#879196;dashed=0;" parent="1" vertex="1"><mxGeometry x="570.09" y="60" width="170" height="90" as="geometry"/></mxCell><mxCell id="VoakX362d_o3581oTcXl-227" value="&lt;font style=&quot;font-size: 11px&quot;&gt;10.2.0.64/26 - bastion02&lt;/font&gt;" style="sketch=0;outlineConnect=0;gradientColor=none;html=1;whiteSpace=wrap;fontSize=12;fontStyle=0;shape=mxgraph.aws4.group;grIcon=mxgraph.aws4.group_subnet;strokeColor=#879196;fillColor=none;verticalAlign=top;align=left;spacingLeft=30;fontColor=#879196;dashed=0;" parent="1" vertex="1"><mxGeometry x="350.0899999999999" y="60" width="180" height="90" as="geometry"/></mxCell><mxCell id="VoakX362d_o3581oTcXl-228" value="&lt;font style=&quot;font-size: 11px&quot;&gt;10.1.0.64/26 - bastion01&lt;/font&gt;" style="sketch=0;outlineConnect=0;gradientColor=none;html=1;whiteSpace=wrap;fontSize=12;fontStyle=0;shape=mxgraph.aws4.group;grIcon=mxgraph.aws4.group_subnet;strokeColor=#879196;fillColor=none;verticalAlign=top;align=left;spacingLeft=30;fontColor=#879196;dashed=0;" parent="1" vertex="1"><mxGeometry x="140.09" y="60" width="170" height="90" as="geometry"/></mxCell><mxCell id="VoakX362d_o3581oTcXl-235" value="Bastion" style="text;html=1;align=center;verticalAlign=middle;resizable=0;points=[];autosize=1;strokeColor=none;fillColor=none;fontSize=10;" parent="1" vertex="1"><mxGeometry x="459.90999999999997" y="130" width="50" height="20" as="geometry"/></mxCell><mxCell id="VoakX362d_o3581oTcXl-236" value="" style="aspect=fixed;perimeter=ellipsePerimeter;html=1;align=center;shadow=0;dashed=0;fontColor=#4277BB;labelBackgroundColor=#ffffff;fontSize=12;spacingTop=3;image;image=img/lib/ibm/vpc/Instance.svg;fillColor=#FF0000;" parent="1" vertex="1"><mxGeometry x="245.09" y="90" width="40" height="40" as="geometry"/></mxCell><mxCell id="VoakX362d_o3581oTcXl-237" value="Bastion" style="text;html=1;align=center;verticalAlign=middle;resizable=0;points=[];autosize=1;strokeColor=none;fillColor=none;fontSize=10;" parent="1" vertex="1"><mxGeometry x="240.09" y="130" width="50" height="20" as="geometry"/></mxCell><mxCell id="VoakX362d_o3581oTcXl-238" value="" style="aspect=fixed;perimeter=ellipsePerimeter;html=1;align=center;shadow=0;dashed=0;fontColor=#4277BB;labelBackgroundColor=#ffffff;fontSize=12;spacingTop=3;image;image=img/lib/ibm/vpc/Instance.svg;fillColor=#FF0000;" parent="1" vertex="1"><mxGeometry x="675.09" y="90" width="40" height="40" as="geometry"/></mxCell><mxCell id="VoakX362d_o3581oTcXl-239" value="Bastion" style="text;html=1;align=center;verticalAlign=middle;resizable=0;points=[];autosize=1;strokeColor=none;fillColor=none;fontSize=10;" parent="1" vertex="1"><mxGeometry x="670.09" y="130" width="50" height="20" as="geometry"/></mxCell><mxCell id="VoakX362d_o3581oTcXl-240" value="" style="aspect=fixed;perimeter=ellipsePerimeter;html=1;align=center;shadow=0;dashed=0;fontColor=#4277BB;labelBackgroundColor=#ffffff;fontSize=12;spacingTop=3;image;image=img/lib/ibm/vpc/Instance.svg;fillColor=#FF0000;" parent="1" vertex="1"><mxGeometry x="464.90999999999997" y="90" width="40" height="40" as="geometry"/></mxCell><mxCell id="VoakX362d_o3581oTcXl-249" value="" style="aspect=fixed;perimeter=ellipsePerimeter;html=1;align=center;shadow=0;dashed=0;fontColor=#4277BB;labelBackgroundColor=#ffffff;fontSize=12;spacingTop=3;image;image=img/lib/ibm/vpc/LoadBalancer.svg;" parent="1" vertex="1"><mxGeometry x="165.08999999999997" y="90" width="40" height="40" as="geometry"/></mxCell><mxCell id="VoakX362d_o3581oTcXl-250" value="" style="endArrow=classic;html=1;fontSize=10;" parent="1" source="VoakX362d_o3581oTcXl-249" target="VoakX362d_o3581oTcXl-236" edge="1"><mxGeometry width="50" height="50" relative="1" as="geometry"><mxPoint x="-524.8199999999999" y="970" as="sourcePoint"/><mxPoint x="245.09000000002533" y="110" as="targetPoint"/></mxGeometry></mxCell><mxCell id="VoakX362d_o3581oTcXl-251" value="" style="aspect=fixed;perimeter=ellipsePerimeter;html=1;align=center;shadow=0;dashed=0;fontColor=#4277BB;labelBackgroundColor=#ffffff;fontSize=12;spacingTop=3;image;image=img/lib/ibm/vpc/LoadBalancer.svg;" parent="1" vertex="1"><mxGeometry x="384.90999999999997" y="90" width="40" height="40" as="geometry"/></mxCell><mxCell id="VoakX362d_o3581oTcXl-252" value="" style="endArrow=classic;html=1;fontSize=10;" parent="1" source="VoakX362d_o3581oTcXl-251" target="VoakX362d_o3581oTcXl-240" edge="1"><mxGeometry width="50" height="50" relative="1" as="geometry"><mxPoint x="-305" y="970" as="sourcePoint"/><mxPoint x="464.9100000000253" y="110" as="targetPoint"/></mxGeometry></mxCell><mxCell id="VoakX362d_o3581oTcXl-253" value="" style="aspect=fixed;perimeter=ellipsePerimeter;html=1;align=center;shadow=0;dashed=0;fontColor=#4277BB;labelBackgroundColor=#ffffff;fontSize=12;spacingTop=3;image;image=img/lib/ibm/vpc/LoadBalancer.svg;" parent="1" vertex="1"><mxGeometry x="595.09" y="90" width="40" height="40" as="geometry"/></mxCell><mxCell id="VoakX362d_o3581oTcXl-254" value="" style="endArrow=classic;html=1;fontSize=10;" parent="1" source="VoakX362d_o3581oTcXl-253" target="VoakX362d_o3581oTcXl-238" edge="1"><mxGeometry width="50" height="50" relative="1" as="geometry"><mxPoint x="-94.82000000000002" y="970" as="sourcePoint"/><mxPoint x="675.0900000000253" y="110" as="targetPoint"/></mxGeometry></mxCell><mxCell id="VoakX362d_o3581oTcXl-255" value="" style="endArrow=classic;html=1;fontSize=10;strokeColor=#000000;rounded=0;" parent="1" source="VoakX362d_o3581oTcXl-217" target="VoakX362d_o3581oTcXl-253" edge="1"><mxGeometry width="50" height="50" relative="1" as="geometry"><mxPoint x="380.09000000000003" y="120" as="sourcePoint"/><mxPoint x="430.09000000000003" y="70" as="targetPoint"/><Array as="points"><mxPoint x="800.09" y="170"/><mxPoint x="615.09" y="170"/></Array></mxGeometry></mxCell><mxCell id="VoakX362d_o3581oTcXl-256" value="" style="endArrow=classic;html=1;fontSize=10;strokeColor=#000000;rounded=0;" parent="1" source="VoakX362d_o3581oTcXl-217" target="VoakX362d_o3581oTcXl-251" edge="1"><mxGeometry width="50" height="50" relative="1" as="geometry"><mxPoint x="820.2342603554988" y="127.4536623433637" as="sourcePoint"/><mxPoint x="625.09" y="140" as="targetPoint"/><Array as="points"><mxPoint x="800.09" y="170"/><mxPoint x="405.09000000000003" y="170"/></Array></mxGeometry></mxCell><mxCell id="VoakX362d_o3581oTcXl-257" value="" style="endArrow=classic;html=1;fontSize=10;strokeColor=#000000;rounded=0;" parent="1" source="VoakX362d_o3581oTcXl-217" target="VoakX362d_o3581oTcXl-249" edge="1"><mxGeometry width="50" height="50" relative="1" as="geometry"><mxPoint x="820.2342603554988" y="127.4536623433637" as="sourcePoint"/><mxPoint x="414.90999999999974" y="140" as="targetPoint"/><Array as="points"><mxPoint x="800.09" y="170"/><mxPoint x="185.09" y="170"/></Array></mxGeometry></mxCell><mxCell id="VoakX362d_o3581oTcXl-274" value="" style="endArrow=classic;html=1;fontSize=10;strokeColor=#000000;exitX=1;exitY=0.5;exitDx=0;exitDy=0;" parent="1" source="VoakX362d_o3581oTcXl-147" target="VoakX362d_o3581oTcXl-241" edge="1"><mxGeometry width="50" height="50" relative="1" as="geometry"><mxPoint x="790" y="590" as="sourcePoint"/><mxPoint x="840" y="540" as="targetPoint"/><Array as="points"><mxPoint x="790" y="520"/></Array></mxGeometry></mxCell><mxCell id="VoakX362d_o3581oTcXl-275" value="" style="endArrow=classic;startArrow=classic;html=1;fontSize=10;strokeColor=#000000;entryX=1.004;entryY=0.404;entryDx=0;entryDy=0;entryPerimeter=0;rounded=0;" parent="1" source="VoakX362d_o3581oTcXl-109" target="VoakX362d_o3581oTcXl-2" edge="1"><mxGeometry width="50" height="50" relative="1" as="geometry"><mxPoint x="570" y="610" as="sourcePoint"/><mxPoint x="620" y="560" as="targetPoint"/><Array as="points"><mxPoint x="1013" y="30"/></Array></mxGeometry></mxCell><mxCell id="VoakX362d_o3581oTcXl-290" value="Remote&lt;br&gt;Employee" style="shape=mxgraph.ibm.box;prType=public;fontStyle=0;verticalAlign=top;align=left;spacingLeft=32;spacingTop=4;fillColor=none;rounded=0;whiteSpace=wrap;html=1;strokeColor=#4376BB;strokeWidth=3;dashed=0;container=1;spacing=-4;collapsible=0;expand=0;recursiveResize=0;fontSize=10;" parent="1" vertex="1"><mxGeometry x="-140" y="-200" width="80" height="210" as="geometry"/></mxCell><mxCell id="VoakX362d_o3581oTcXl-291" value="" style="aspect=fixed;perimeter=ellipsePerimeter;html=1;align=center;shadow=0;dashed=0;fontColor=#4277BB;labelBackgroundColor=#ffffff;fontSize=12;spacingTop=3;image;image=img/lib/ibm/vpc/Internet.svg;fillColor=#FF0000;" parent="VoakX362d_o3581oTcXl-290" vertex="1"><mxGeometry x="20" y="140" width="40" height="40" as="geometry"/></mxCell><mxCell id="VoakX362d_o3581oTcXl-292" value="Remote&lt;br&gt;Employee" style="aspect=fixed;perimeter=ellipsePerimeter;html=1;align=center;shadow=0;dashed=0;labelBackgroundColor=#ffffff;fontSize=12;spacingTop=3;image;image=img/lib/ibm/users/user.svg;fillColor=#FF0000;spacing=0;" parent="1" vertex="1"><mxGeometry x="-120" y="-150" width="40" height="40" as="geometry"/></mxCell><mxCell id="VoakX362d_o3581oTcXl-293" value="" style="endArrow=classic;html=1;fontSize=10;" parent="1" source="VoakX362d_o3581oTcXl-292" target="VoakX362d_o3581oTcXl-291" edge="1"><mxGeometry width="50" height="50" relative="1" as="geometry"><mxPoint x="160" y="160" as="sourcePoint"/><mxPoint x="210" y="110" as="targetPoint"/></mxGeometry></mxCell><mxCell id="VoakX362d_o3581oTcXl-294" value="" style="endArrow=classic;html=1;fontSize=10;fontColor=#000000;strokeColor=#000000;" parent="1" source="VoakX362d_o3581oTcXl-291" target="VoakX362d_o3581oTcXl-243" edge="1"><mxGeometry width="50" height="50" relative="1" as="geometry"><mxPoint x="270" y="90" as="sourcePoint"/><mxPoint x="320" y="40" as="targetPoint"/></mxGeometry></mxCell><mxCell id="VoakX362d_o3581oTcXl-296" value="Enterprise&lt;br&gt;Network" style="shape=mxgraph.ibm.box;prType=enterprise;fontStyle=0;verticalAlign=top;align=left;spacingLeft=32;spacingTop=4;fillColor=none;rounded=0;whiteSpace=wrap;html=1;strokeColor=#4376BB;strokeWidth=3;dashed=0;container=1;spacing=-4;collapsible=0;expand=0;recursiveResize=0;fontSize=10;fontColor=#000000;" parent="1" vertex="1"><mxGeometry x="1060" y="-200" width="100" height="390" as="geometry"/></mxCell><mxCell id="VoakX362d_o3581oTcXl-298" value="Enterprise&lt;br&gt;Directory" style="aspect=fixed;perimeter=ellipsePerimeter;html=1;align=center;shadow=0;dashed=0;labelBackgroundColor=#ffffff;fontSize=12;spacingTop=3;image;image=img/lib/ibm/data/enterprise_user_directory.svg;strokeColor=#7DBC41;strokeWidth=3;fillColor=#FFFFFF;" parent="VoakX362d_o3581oTcXl-296" vertex="1"><mxGeometry x="30" y="50" width="40" height="40" as="geometry"/></mxCell><mxCell id="VoakX362d_o3581oTcXl-297" value="Enterprise&lt;br&gt;User" style="aspect=fixed;perimeter=ellipsePerimeter;html=1;align=center;shadow=0;dashed=0;labelBackgroundColor=#ffffff;fontSize=12;spacingTop=3;image;image=img/lib/ibm/users/user.svg;strokeColor=#7DBC41;strokeWidth=3;fillColor=#FFFFFF;" parent="VoakX362d_o3581oTcXl-296" vertex="1"><mxGeometry x="30" y="170" width="40" height="40" as="geometry"/></mxCell><mxCell id="VoakX362d_o3581oTcXl-303" value="Enterprise&lt;br&gt;Application" style="aspect=fixed;perimeter=ellipsePerimeter;html=1;align=center;shadow=0;dashed=0;labelBackgroundColor=#ffffff;fontSize=12;spacingTop=3;image;image=img/lib/ibm/applications/enterprise_applications.svg;strokeColor=#7DBC41;strokeWidth=3;fillColor=#FFFFFF;" parent="VoakX362d_o3581oTcXl-296" vertex="1"><mxGeometry x="30" y="300" width="40" height="40" as="geometry"/></mxCell><mxCell id="VoakX362d_o3581oTcXl-299" value="Direct&lt;br&gt;Link" style="aspect=fixed;perimeter=ellipsePerimeter;html=1;align=center;shadow=0;dashed=0;labelBackgroundColor=#ffffff;fontSize=12;spacingTop=3;image;image=img/lib/ibm/vpc/DirectLink.svg;strokeColor=#7DBC41;strokeWidth=3;fillColor=#FFFFFF;" parent="1" vertex="1"><mxGeometry x="940" y="-140" width="40" height="40" as="geometry"/></mxCell><mxCell id="VoakX362d_o3581oTcXl-300" value="" style="endArrow=classic;startArrow=classic;html=1;fontSize=10;fontColor=#000000;strokeColor=#000000;exitX=0.999;exitY=0.115;exitDx=0;exitDy=0;exitPerimeter=0;" parent="1" source="VoakX362d_o3581oTcXl-2" target="VoakX362d_o3581oTcXl-299" edge="1"><mxGeometry width="50" height="50" relative="1" as="geometry"><mxPoint x="980" y="200" as="sourcePoint"/><mxPoint x="1030" y="150" as="targetPoint"/></mxGeometry></mxCell><mxCell id="VoakX362d_o3581oTcXl-301" value="" style="endArrow=classic;startArrow=classic;html=1;fontSize=10;fontColor=#000000;strokeColor=#000000;entryX=0;entryY=0.205;entryDx=0;entryDy=0;entryPerimeter=0;" parent="1" source="VoakX362d_o3581oTcXl-299" target="VoakX362d_o3581oTcXl-296" edge="1"><mxGeometry width="50" height="50" relative="1" as="geometry"><mxPoint x="980" y="200" as="sourcePoint"/><mxPoint x="1030" y="150" as="targetPoint"/></mxGeometry></mxCell><mxCell id="VoakX362d_o3581oTcXl-302" value="" style="endArrow=classic;startArrow=classic;html=1;fontSize=10;fontColor=#000000;strokeColor=#000000;entryX=0;entryY=0.41;entryDx=0;entryDy=0;entryPerimeter=0;" parent="1" source="VoakX362d_o3581oTcXl-126" target="VoakX362d_o3581oTcXl-296" edge="1"><mxGeometry width="50" height="50" relative="1" as="geometry"><mxPoint x="980" y="200" as="sourcePoint"/><mxPoint x="1030" y="150" as="targetPoint"/></mxGeometry></mxCell><mxCell id="3A7IAFDjcURwmV4KXYfe-1" value="" style="endArrow=classic;html=1;rounded=0;fontSize=12;exitX=0.998;exitY=0.533;exitDx=0;exitDy=0;exitPerimeter=0;" parent="1" source="VoakX362d_o3581oTcXl-188" target="VoakX362d_o3581oTcXl-241" edge="1"><mxGeometry width="50" height="50" relative="1" as="geometry"><mxPoint x="340" y="870" as="sourcePoint"/><mxPoint x="390" y="820" as="targetPoint"/><Array as="points"><mxPoint x="790" y="950"/></Array></mxGeometry></mxCell><mxCell id="3A7IAFDjcURwmV4KXYfe-4" value="" style="endArrow=classic;html=1;rounded=0;fontSize=12;" parent="1" source="VoakX362d_o3581oTcXl-106" target="3A7IAFDjcURwmV4KXYfe-2" edge="1"><mxGeometry width="50" height="50" relative="1" as="geometry"><mxPoint x="250" y="410" as="sourcePoint"/><mxPoint x="300" y="360" as="targetPoint"/></mxGeometry></mxCell></root></mxGraphModel></diagram><diagram name="standard" id="Pnh-dW-k4Of76Sojxr28"><mxGraphModel dx="2286" dy="1725" grid="1" gridSize="10" guides="1" tooltips="1" connect="0" arrows="1" fold="1" page="1" pageScale="1" pageWidth="1100" pageHeight="850" math="0" shadow="0"><root><mxCell id="oH8qyKHxsSz--46kpDcP-0"/><mxCell id="oH8qyKHxsSz--46kpDcP-1" parent="oH8qyKHxsSz--46kpDcP-0"/><mxCell id="oH8qyKHxsSz--46kpDcP-2" value="IBM Cloud" style="shape=mxgraph.ibm.box;prType=cloud;fontStyle=0;verticalAlign=top;align=left;spacingLeft=32;spacingTop=4;fillColor=none;rounded=0;whiteSpace=wrap;html=1;strokeColor=#4376BB;strokeWidth=3;dashed=0;container=1;spacing=-4;collapsible=0;expand=0;recursiveResize=0;" vertex="1" parent="oH8qyKHxsSz--46kpDcP-1"><mxGeometry x="-40" y="-200" width="1080" height="960" as="geometry"/></mxCell><mxCell id="oH8qyKHxsSz--46kpDcP-69" value="" style="aspect=fixed;perimeter=ellipsePerimeter;html=1;align=center;shadow=0;dashed=0;fontColor=#4277BB;labelBackgroundColor=#ffffff;fontSize=12;spacingTop=3;image;image=img/lib/ibm/vpc/LoadBalancer.svg;" vertex="1" parent="oH8qyKHxsSz--46kpDcP-2"><mxGeometry x="50" y="650" width="40" height="40" as="geometry"/></mxCell><mxCell id="oH8qyKHxsSz--46kpDcP-75" value="Cloud Services" style="fontStyle=0;verticalAlign=top;align=center;spacingTop=-2;fillColor=none;rounded=0;whiteSpace=wrap;html=1;strokeColor=#4376BB;strokeWidth=1;dashed=0;container=1;collapsible=0;expand=0;recursiveResize=0;fontSize=10;" vertex="1" parent="oH8qyKHxsSz--46kpDcP-2"><mxGeometry x="950" y="230" width="90" height="680" as="geometry"/></mxCell><mxCell id="oH8qyKHxsSz--46kpDcP-76" value="Logging" style="aspect=fixed;perimeter=ellipsePerimeter;html=1;align=center;shadow=0;dashed=0;labelBackgroundColor=#ffffff;fontSize=12;spacingTop=3;image;image=img/lib/ibm/infrastructure/monitoring_logging.svg;fillColor=#FF0000;" vertex="1" parent="oH8qyKHxsSz--46kpDcP-75"><mxGeometry x="25" y="140" width="40" height="40" as="geometry"/></mxCell><mxCell id="oH8qyKHxsSz--46kpDcP-77" value="&lt;font color=&quot;#000000&quot;&gt;Object&lt;br&gt;Storage&lt;/font&gt;" style="aspect=fixed;perimeter=ellipsePerimeter;html=1;align=center;shadow=0;dashed=0;fontColor=#4277BB;labelBackgroundColor=#ffffff;fontSize=12;spacingTop=3;image;image=img/lib/ibm/vpc/ObjectStorage.svg;fillColor=#FF0000;" vertex="1" parent="oH8qyKHxsSz--46kpDcP-75"><mxGeometry x="25" y="360" width="40" height="40" as="geometry"/></mxCell><mxCell id="oH8qyKHxsSz--46kpDcP-78" value="Activity&lt;br&gt;Tracker" style="aspect=fixed;perimeter=ellipsePerimeter;html=1;align=center;shadow=0;dashed=0;labelBackgroundColor=#ffffff;fontSize=12;spacingTop=3;image;image=img/lib/ibm/management/monitoring_metrics.svg;fillColor=#FF0000;" vertex="1" parent="oH8qyKHxsSz--46kpDcP-75"><mxGeometry x="25" y="250" width="40" height="40" as="geometry"/></mxCell><mxCell id="oH8qyKHxsSz--46kpDcP-79" value="Monitoring" style="aspect=fixed;perimeter=ellipsePerimeter;html=1;align=center;shadow=0;dashed=0;labelBackgroundColor=#ffffff;fontSize=12;spacingTop=3;image;image=img/lib/ibm/infrastructure/monitoring.svg;fillColor=#FF0000;" vertex="1" parent="oH8qyKHxsSz--46kpDcP-75"><mxGeometry x="25" y="30" width="40" height="40" as="geometry"/></mxCell><mxCell id="oH8qyKHxsSz--46kpDcP-80" value="" style="group" vertex="1" connectable="0" parent="oH8qyKHxsSz--46kpDcP-75"><mxGeometry x="25" y="590" width="40" height="40" as="geometry"/></mxCell><mxCell id="oH8qyKHxsSz--46kpDcP-81" value="" style="ellipse;whiteSpace=wrap;html=1;aspect=fixed;fontSize=10;fontColor=#000000;align=center;strokeColor=#7DBC41;fillColor=#FFFFFF;strokeWidth=3;" vertex="1" parent="oH8qyKHxsSz--46kpDcP-80"><mxGeometry width="40" height="40" as="geometry"/></mxCell><mxCell id="oH8qyKHxsSz--46kpDcP-82" value="Certificate&#10;Manager" style="shape=image;verticalLabelPosition=bottom;labelBackgroundColor=#ffffff;verticalAlign=top;aspect=fixed;imageAspect=0;image=data:image/svg+xml,PHN2ZyB4bWxucz0iaHR0cDovL3d3dy53My5vcmcvMjAwMC9zdmciIHhtbG5zOnhsaW5rPSJodHRwOi8vd3d3LnczLm9yZy8xOTk5L3hsaW5rIiB2ZXJzaW9uPSIxLjEiIGlkPSJMYXllcl8xIiB4PSIwcHgiIHk9IjBweCIgd2lkdGg9IjI0IiBoZWlnaHQ9IjMwIiB2aWV3Qm94PSI4IC0zIDI0IDMwIiBzdHlsZT0iZW5hYmxlLWJhY2tncm91bmQ6bmV3IDQgLTQgMzIgMzI7IiB4bWw6c3BhY2U9InByZXNlcnZlIj4mI3hhOzxzdHlsZSB0eXBlPSJ0ZXh0L2NzcyI+JiN4YTsJLnN0MHtmaWxsOnVybCgjU1ZHSURfMV8pO30mI3hhOwkuc3Qxe2ZpbGw6IzAwQUE1RTt9JiN4YTs8L3N0eWxlPiYjeGE7PGxpbmVhckdyYWRpZW50IGlkPSJTVkdJRF8xXyIgZ3JhZGllbnRVbml0cz0idXNlclNwYWNlT25Vc2UiIHgxPSIxNS43NjYyIiB5MT0iMTAuNzY2MSIgeDI9IjI0LjIxNTUiIHkyPSIxOS4yMTU1IiBncmFkaWVudFRyYW5zZm9ybT0ibWF0cml4KDEgMCAwIC0xIDAgMjQpIj4mI3hhOwk8c3RvcCBvZmZzZXQ9IjAiIHN0eWxlPSJzdG9wLWNvbG9yOiM4OUVEQTAiLz4mI3hhOwk8c3RvcCBvZmZzZXQ9IjAuNDk5IiBzdHlsZT0ic3RvcC1jb2xvcjojODlFREEwIi8+JiN4YTsJPHN0b3Agb2Zmc2V0PSIwLjUiIHN0eWxlPSJzdG9wLWNvbG9yOiMwMEFBNUUiLz4mI3hhOwk8c3RvcCBvZmZzZXQ9IjAuOTk4NyIgc3R5bGU9InN0b3AtY29sb3I6IzAwQUE1RSIvPiYjeGE7PC9saW5lYXJHcmFkaWVudD4mI3hhOzxjaXJjbGUgY2xhc3M9InN0MCIgY3g9IjIwIiBjeT0iOSIgcj0iNiIvPiYjeGE7PHBhdGggY2xhc3M9InN0MSIgZD0iTTMyLDljMC02LjYtNS40LTEyLTEyLTEyQzEzLjQtMyw4LDIuNCw4LDljMCwzLDEuMSw1LjgsMyw3LjlWMjF2Nmw5LTVsOSw1di01LjNWMjF2LTQuMUMzMC45LDE0LjgsMzIsMTIsMzIsOXomIzEwOyYjOTsgTTIwLTFjNS41LDAsMTAsNC41LDEwLDEwYzAsNS41LTQuNSwxMC0xMCwxMGMtNS41LDAtMTAtNC41LTEwLTEwQzEwLDMuNSwxNC41LTEsMjAtMXoiLz4mI3hhOzwvc3ZnPg==;" vertex="1" parent="oH8qyKHxsSz--46kpDcP-80"><mxGeometry x="8" y="5" width="24" height="30" as="geometry"/></mxCell><mxCell id="oH8qyKHxsSz--46kpDcP-83" value="Key &lt;br&gt;Management" style="aspect=fixed;perimeter=ellipsePerimeter;html=1;align=center;shadow=0;dashed=0;labelBackgroundColor=#ffffff;fontSize=12;spacingTop=3;image;image=img/lib/ibm/vpc/Key.svg;fillColor=#FF0000;" vertex="1" parent="oH8qyKHxsSz--46kpDcP-2"><mxGeometry x="975" y="700" width="40" height="40" as="geometry"/></mxCell><mxCell id="oH8qyKHxsSz--46kpDcP-89" value="" style="aspect=fixed;perimeter=ellipsePerimeter;html=1;align=center;shadow=0;dashed=0;fontColor=#4277BB;labelBackgroundColor=#ffffff;fontSize=12;spacingTop=3;image;image=img/lib/ibm/infrastructure/edge_services.svg;" vertex="1" parent="oH8qyKHxsSz--46kpDcP-2"><mxGeometry x="50" y="360" width="40" height="40" as="geometry"/></mxCell><mxCell id="S4G6Z6UGCeyrZd-CoMDP-2" value="" style="endArrow=classic;html=1;rounded=0;fontSize=12;" edge="1" parent="oH8qyKHxsSz--46kpDcP-2" source="oH8qyKHxsSz--46kpDcP-89" target="oH8qyKHxsSz--46kpDcP-69"><mxGeometry width="50" height="50" relative="1" as="geometry"><mxPoint x="310" y="750" as="sourcePoint"/><mxPoint x="360" y="700" as="targetPoint"/></mxGeometry></mxCell><mxCell id="S4G6Z6UGCeyrZd-CoMDP-3" value="Cloud Internet Service" style="text;html=1;strokeColor=none;fillColor=none;align=center;verticalAlign=middle;whiteSpace=wrap;rounded=0;fontSize=12;" vertex="1" parent="oH8qyKHxsSz--46kpDcP-2"><mxGeometry x="40" y="310" width="60" height="50" as="geometry"/></mxCell><mxCell id="oH8qyKHxsSz--46kpDcP-93" value="standard (VPC)" style="shape=mxgraph.ibm.box;prType=vpc;fontStyle=0;verticalAlign=top;align=left;spacingLeft=32;spacingTop=4;fillColor=none;rounded=0;whiteSpace=wrap;html=1;strokeColor=#4376BB;strokeWidth=2;dashed=0;container=1;spacing=-4;collapsible=0;expand=0;recursiveResize=0;" vertex="1" parent="oH8qyKHxsSz--46kpDcP-1"><mxGeometry x="100" y="-180" width="780" height="920" as="geometry"/></mxCell><mxCell id="oH8qyKHxsSz--46kpDcP-95" value="Zone 2 - 10.2.0.0/22" style="shape=mxgraph.ibm.box;prType=zone;fontStyle=0;verticalAlign=top;align=left;spacingLeft=32;spacingTop=4;fillColor=#E0E0E0;rounded=0;whiteSpace=wrap;html=1;strokeColor=#919191;strokeWidth=1;dashed=0;container=1;spacing=-4;collapsible=0;expand=0;recursiveResize=0;" vertex="1" parent="oH8qyKHxsSz--46kpDcP-93"><mxGeometry x="240" y="30" width="200" height="870" as="geometry"/></mxCell><mxCell id="oH8qyKHxsSz--46kpDcP-96" value="Zone 3 - 10.3.0.0/22" style="shape=mxgraph.ibm.box;prType=zone;fontStyle=0;verticalAlign=top;align=left;spacingLeft=32;spacingTop=4;fillColor=#E0E0E0;rounded=0;whiteSpace=wrap;html=1;strokeColor=#919191;strokeWidth=1;dashed=0;container=1;spacing=-4;collapsible=0;expand=0;recursiveResize=0;" vertex="1" parent="oH8qyKHxsSz--46kpDcP-93"><mxGeometry x="460" y="30" width="200" height="870" as="geometry"/></mxCell><mxCell id="oH8qyKHxsSz--46kpDcP-94" value="Zone 1 - 10.1.0.0/22" style="shape=mxgraph.ibm.box;prType=zone;fontStyle=0;verticalAlign=top;align=left;spacingLeft=32;spacingTop=4;fillColor=#E0E0E0;rounded=0;whiteSpace=wrap;html=1;strokeColor=#919191;strokeWidth=1;dashed=0;container=1;spacing=-4;collapsible=0;expand=0;recursiveResize=0;" vertex="1" parent="oH8qyKHxsSz--46kpDcP-93"><mxGeometry x="20" y="30" width="200" height="870" as="geometry"/></mxCell><mxCell id="oH8qyKHxsSz--46kpDcP-97" value="ACL: egress" style="shape=mxgraph.ibm.box;prType=subnet;fontStyle=0;verticalAlign=top;align=left;spacingLeft=32;spacingTop=4;fillColor=#E6F0E2;rounded=0;whiteSpace=wrap;html=1;strokeColor=#00882B;strokeWidth=1;dashed=0;container=1;spacing=-4;collapsible=0;expand=0;recursiveResize=0;fontSize=10;" vertex="1" parent="oH8qyKHxsSz--46kpDcP-94"><mxGeometry x="10" y="330" width="620" height="140" as="geometry"/></mxCell><mxCell id="oH8qyKHxsSz--46kpDcP-98" value="Public GW" style="text;html=1;align=center;verticalAlign=middle;resizable=0;points=[];autosize=1;strokeColor=none;fillColor=none;fontSize=10;" vertex="1" parent="oH8qyKHxsSz--46kpDcP-97"><mxGeometry x="120" width="60" height="20" as="geometry"/></mxCell><mxCell id="oH8qyKHxsSz--46kpDcP-99" value="Public GW" style="text;html=1;align=center;verticalAlign=middle;resizable=0;points=[];autosize=1;strokeColor=none;fillColor=none;fontSize=10;" vertex="1" parent="oH8qyKHxsSz--46kpDcP-97"><mxGeometry x="340" width="60" height="20" as="geometry"/></mxCell><mxCell id="oH8qyKHxsSz--46kpDcP-100" value="Public GW" style="text;html=1;align=center;verticalAlign=middle;resizable=0;points=[];autosize=1;strokeColor=none;fillColor=none;fontSize=10;" vertex="1" parent="oH8qyKHxsSz--46kpDcP-97"><mxGeometry x="550" width="60" height="20" as="geometry"/></mxCell><mxCell id="oH8qyKHxsSz--46kpDcP-101" value="&lt;font style=&quot;font-size: 11px&quot;&gt;10.1.0.128/26 - egress01&lt;/font&gt;" style="sketch=0;outlineConnect=0;gradientColor=none;html=1;whiteSpace=wrap;fontSize=12;fontStyle=0;shape=mxgraph.aws4.group;grIcon=mxgraph.aws4.group_subnet;strokeColor=#879196;fillColor=none;verticalAlign=top;align=left;spacingLeft=30;fontColor=#879196;dashed=0;" vertex="1" parent="oH8qyKHxsSz--46kpDcP-94"><mxGeometry x="20" y="360" width="170" height="100" as="geometry"/></mxCell><mxCell id="oH8qyKHxsSz--46kpDcP-102" value="&lt;font style=&quot;font-size: 11px&quot;&gt;10.2.0.128/26 - egress02&lt;/font&gt;" style="sketch=0;outlineConnect=0;gradientColor=none;html=1;whiteSpace=wrap;fontSize=12;fontStyle=0;shape=mxgraph.aws4.group;grIcon=mxgraph.aws4.group_subnet;strokeColor=#879196;fillColor=none;verticalAlign=top;align=left;spacingLeft=30;fontColor=#879196;dashed=0;" vertex="1" parent="oH8qyKHxsSz--46kpDcP-94"><mxGeometry x="230" y="360" width="180" height="100" as="geometry"/></mxCell><mxCell id="oH8qyKHxsSz--46kpDcP-103" value="&lt;font style=&quot;font-size: 11px&quot;&gt;10.3.0.128/26 - egress03&lt;/font&gt;" style="sketch=0;outlineConnect=0;gradientColor=none;html=1;whiteSpace=wrap;fontSize=12;fontStyle=0;shape=mxgraph.aws4.group;grIcon=mxgraph.aws4.group_subnet;strokeColor=#879196;fillColor=none;verticalAlign=top;align=left;spacingLeft=30;fontColor=#879196;dashed=0;" vertex="1" parent="oH8qyKHxsSz--46kpDcP-94"><mxGeometry x="450" y="360" width="170" height="100" as="geometry"/></mxCell><mxCell id="oH8qyKHxsSz--46kpDcP-104" value="" style="aspect=fixed;perimeter=ellipsePerimeter;html=1;align=center;shadow=0;dashed=0;fontColor=#4277BB;labelBackgroundColor=#ffffff;fontSize=12;spacingTop=3;image;image=img/lib/ibm/vpc/PublicGateway.svg;fillColor=#FF0000;" vertex="1" parent="oH8qyKHxsSz--46kpDcP-94"><mxGeometry x="600" y="350" width="30" height="30" as="geometry"/></mxCell><mxCell id="oH8qyKHxsSz--46kpDcP-105" value="" style="aspect=fixed;perimeter=ellipsePerimeter;html=1;align=center;shadow=0;dashed=0;fontColor=#4277BB;labelBackgroundColor=#ffffff;fontSize=12;spacingTop=3;image;image=img/lib/ibm/vpc/PublicGateway.svg;fillColor=#FF0000;" vertex="1" parent="oH8qyKHxsSz--46kpDcP-94"><mxGeometry x="390" y="350" width="30" height="30" as="geometry"/></mxCell><mxCell id="oH8qyKHxsSz--46kpDcP-106" value="" style="aspect=fixed;perimeter=ellipsePerimeter;html=1;align=center;shadow=0;dashed=0;fontColor=#4277BB;labelBackgroundColor=#ffffff;fontSize=12;spacingTop=3;image;image=img/lib/ibm/vpc/PublicGateway.svg;fillColor=#FF0000;" vertex="1" parent="oH8qyKHxsSz--46kpDcP-94"><mxGeometry x="170" y="350" width="30" height="30" as="geometry"/></mxCell><mxCell id="oH8qyKHxsSz--46kpDcP-107" value="" style="aspect=fixed;perimeter=ellipsePerimeter;html=1;align=center;shadow=0;dashed=0;fontColor=#4277BB;labelBackgroundColor=#ffffff;fontSize=12;spacingTop=3;image;image=img/lib/ibm/vpc/Instance.svg;fillColor=#FF0000;" vertex="1" parent="oH8qyKHxsSz--46kpDcP-94"><mxGeometry x="130" y="410" width="40" height="40" as="geometry"/></mxCell><mxCell id="oH8qyKHxsSz--46kpDcP-108" value="" style="aspect=fixed;perimeter=ellipsePerimeter;html=1;align=center;shadow=0;dashed=0;fontColor=#4277BB;labelBackgroundColor=#ffffff;fontSize=12;spacingTop=3;image;image=img/lib/ibm/vpc/LoadBalancer.svg;" vertex="1" parent="oH8qyKHxsSz--46kpDcP-94"><mxGeometry x="50" y="410" width="40" height="40" as="geometry"/></mxCell><mxCell id="oH8qyKHxsSz--46kpDcP-109" value="" style="endArrow=classic;html=1;fontSize=10;" edge="1" parent="oH8qyKHxsSz--46kpDcP-94" source="oH8qyKHxsSz--46kpDcP-108" target="oH8qyKHxsSz--46kpDcP-107"><mxGeometry width="50" height="50" relative="1" as="geometry"><mxPoint x="-90" y="590" as="sourcePoint"/><mxPoint x="-40" y="540" as="targetPoint"/></mxGeometry></mxCell><mxCell id="oH8qyKHxsSz--46kpDcP-110" value="" style="aspect=fixed;perimeter=ellipsePerimeter;html=1;align=center;shadow=0;dashed=0;fontColor=#4277BB;labelBackgroundColor=#ffffff;fontSize=12;spacingTop=3;image;image=img/lib/ibm/vpc/Instance.svg;fillColor=#FF0000;" vertex="1" parent="oH8qyKHxsSz--46kpDcP-94"><mxGeometry x="560" y="410" width="40" height="40" as="geometry"/></mxCell><mxCell id="oH8qyKHxsSz--46kpDcP-111" value="" style="aspect=fixed;perimeter=ellipsePerimeter;html=1;align=center;shadow=0;dashed=0;fontColor=#4277BB;labelBackgroundColor=#ffffff;fontSize=12;spacingTop=3;image;image=img/lib/ibm/vpc/LoadBalancer.svg;" vertex="1" parent="oH8qyKHxsSz--46kpDcP-94"><mxGeometry x="480" y="410" width="40" height="40" as="geometry"/></mxCell><mxCell id="oH8qyKHxsSz--46kpDcP-112" value="" style="endArrow=classic;html=1;fontSize=10;" edge="1" parent="oH8qyKHxsSz--46kpDcP-94" source="oH8qyKHxsSz--46kpDcP-111" target="oH8qyKHxsSz--46kpDcP-110"><mxGeometry width="50" height="50" relative="1" as="geometry"><mxPoint x="340" y="590" as="sourcePoint"/><mxPoint x="390" y="540" as="targetPoint"/></mxGeometry></mxCell><mxCell id="oH8qyKHxsSz--46kpDcP-113" value="" style="aspect=fixed;perimeter=ellipsePerimeter;html=1;align=center;shadow=0;dashed=0;fontColor=#4277BB;labelBackgroundColor=#ffffff;fontSize=12;spacingTop=3;image;image=img/lib/ibm/vpc/Instance.svg;fillColor=#FF0000;" vertex="1" parent="oH8qyKHxsSz--46kpDcP-94"><mxGeometry x="345" y="410" width="40" height="40" as="geometry"/></mxCell><mxCell id="oH8qyKHxsSz--46kpDcP-114" value="" style="aspect=fixed;perimeter=ellipsePerimeter;html=1;align=center;shadow=0;dashed=0;fontColor=#4277BB;labelBackgroundColor=#ffffff;fontSize=12;spacingTop=3;image;image=img/lib/ibm/vpc/LoadBalancer.svg;" vertex="1" parent="oH8qyKHxsSz--46kpDcP-94"><mxGeometry x="265" y="410" width="40" height="40" as="geometry"/></mxCell><mxCell id="oH8qyKHxsSz--46kpDcP-115" value="" style="endArrow=classic;html=1;fontSize=10;" edge="1" parent="oH8qyKHxsSz--46kpDcP-94" source="oH8qyKHxsSz--46kpDcP-114" target="oH8qyKHxsSz--46kpDcP-113"><mxGeometry width="50" height="50" relative="1" as="geometry"><mxPoint x="125" y="590" as="sourcePoint"/><mxPoint x="175" y="540" as="targetPoint"/></mxGeometry></mxCell><mxCell id="oH8qyKHxsSz--46kpDcP-116" value="Proxy" style="text;html=1;align=center;verticalAlign=middle;resizable=0;points=[];autosize=1;strokeColor=none;fillColor=none;fontSize=10;" vertex="1" parent="oH8qyKHxsSz--46kpDcP-94"><mxGeometry x="560" y="390" width="40" height="20" as="geometry"/></mxCell><mxCell id="oH8qyKHxsSz--46kpDcP-117" value="Proxy" style="text;html=1;align=center;verticalAlign=middle;resizable=0;points=[];autosize=1;strokeColor=none;fillColor=none;fontSize=10;" vertex="1" parent="oH8qyKHxsSz--46kpDcP-94"><mxGeometry x="345" y="390" width="40" height="20" as="geometry"/></mxCell><mxCell id="oH8qyKHxsSz--46kpDcP-118" value="Proxy" style="text;html=1;align=center;verticalAlign=middle;resizable=0;points=[];autosize=1;strokeColor=none;fillColor=none;fontSize=10;" vertex="1" parent="oH8qyKHxsSz--46kpDcP-94"><mxGeometry x="130" y="390" width="40" height="20" as="geometry"/></mxCell><mxCell id="oH8qyKHxsSz--46kpDcP-58" value="ACL: vpe" style="shape=mxgraph.ibm.box;prType=subnet;fontStyle=0;verticalAlign=top;align=left;spacingLeft=32;spacingTop=4;fillColor=#E6F0E2;rounded=0;whiteSpace=wrap;html=1;strokeColor=#00882B;strokeWidth=1;dashed=0;container=1;spacing=-4;collapsible=0;expand=0;recursiveResize=0;fontSize=10;" vertex="1" parent="oH8qyKHxsSz--46kpDcP-94"><mxGeometry x="10" y="710" width="620" height="125.36" as="geometry"/></mxCell><mxCell id="oH8qyKHxsSz--46kpDcP-59" value="10.1.2.0/25 - vpe1" style="sketch=0;outlineConnect=0;gradientColor=none;html=1;whiteSpace=wrap;fontSize=12;fontStyle=0;shape=mxgraph.aws4.group;grIcon=mxgraph.aws4.group_subnet;strokeColor=#879196;fillColor=none;verticalAlign=top;align=left;spacingLeft=30;fontColor=#879196;dashed=0;" vertex="1" parent="oH8qyKHxsSz--46kpDcP-94"><mxGeometry x="20" y="745" width="170" height="79.64" as="geometry"/></mxCell><mxCell id="oH8qyKHxsSz--46kpDcP-60" value="10.2.2.0/25 - vpe2" style="sketch=0;outlineConnect=0;gradientColor=none;html=1;whiteSpace=wrap;fontSize=12;fontStyle=0;shape=mxgraph.aws4.group;grIcon=mxgraph.aws4.group_subnet;strokeColor=#879196;fillColor=none;verticalAlign=top;align=left;spacingLeft=30;fontColor=#879196;dashed=0;" vertex="1" parent="oH8qyKHxsSz--46kpDcP-94"><mxGeometry x="235" y="745" width="170" height="79.64" as="geometry"/></mxCell><mxCell id="oH8qyKHxsSz--46kpDcP-61" value="10.3.2.0/25 - vpe3" style="sketch=0;outlineConnect=0;gradientColor=none;html=1;whiteSpace=wrap;fontSize=12;fontStyle=0;shape=mxgraph.aws4.group;grIcon=mxgraph.aws4.group_subnet;strokeColor=#879196;fillColor=none;verticalAlign=top;align=left;spacingLeft=30;fontColor=#879196;dashed=0;" vertex="1" parent="oH8qyKHxsSz--46kpDcP-94"><mxGeometry x="450" y="745" width="170" height="79.64" as="geometry"/></mxCell><mxCell id="oH8qyKHxsSz--46kpDcP-62" value="" style="aspect=fixed;perimeter=ellipsePerimeter;html=1;align=center;shadow=0;dashed=0;fontColor=#4277BB;labelBackgroundColor=#ffffff;fontSize=12;spacingTop=3;image;image=img/lib/ibm/vpc/LoadBalancerPool.svg;fillColor=#FF0000;" vertex="1" parent="oH8qyKHxsSz--46kpDcP-94"><mxGeometry x="50" y="779.9099999999999" width="29.82" height="29.82" as="geometry"/></mxCell><mxCell id="oH8qyKHxsSz--46kpDcP-63" value="" style="aspect=fixed;perimeter=ellipsePerimeter;html=1;align=center;shadow=0;dashed=0;fontColor=#4277BB;labelBackgroundColor=#ffffff;fontSize=12;spacingTop=3;image;image=img/lib/ibm/vpc/LoadBalancerPool.svg;fillColor=#FF0000;" vertex="1" parent="oH8qyKHxsSz--46kpDcP-94"><mxGeometry x="130" y="779.9099999999999" width="29.82" height="29.82" as="geometry"/></mxCell><mxCell id="oH8qyKHxsSz--46kpDcP-65" value="" style="aspect=fixed;perimeter=ellipsePerimeter;html=1;align=center;shadow=0;dashed=0;fontColor=#4277BB;labelBackgroundColor=#ffffff;fontSize=12;spacingTop=3;image;image=img/lib/ibm/vpc/LoadBalancerPool.svg;fillColor=#FF0000;" vertex="1" parent="oH8qyKHxsSz--46kpDcP-94"><mxGeometry x="270" y="779.9099999999999" width="29.82" height="29.82" as="geometry"/></mxCell><mxCell id="oH8qyKHxsSz--46kpDcP-66" value="" style="aspect=fixed;perimeter=ellipsePerimeter;html=1;align=center;shadow=0;dashed=0;fontColor=#4277BB;labelBackgroundColor=#ffffff;fontSize=12;spacingTop=3;image;image=img/lib/ibm/vpc/LoadBalancerPool.svg;fillColor=#FF0000;" vertex="1" parent="oH8qyKHxsSz--46kpDcP-94"><mxGeometry x="340" y="779.9099999999999" width="29.82" height="29.82" as="geometry"/></mxCell><mxCell id="oH8qyKHxsSz--46kpDcP-67" value="" style="aspect=fixed;perimeter=ellipsePerimeter;html=1;align=center;shadow=0;dashed=0;fontColor=#4277BB;labelBackgroundColor=#ffffff;fontSize=12;spacingTop=3;image;image=img/lib/ibm/vpc/LoadBalancerPool.svg;fillColor=#FF0000;" vertex="1" parent="oH8qyKHxsSz--46kpDcP-94"><mxGeometry x="490" y="779.9099999999999" width="29.82" height="29.82" as="geometry"/></mxCell><mxCell id="oH8qyKHxsSz--46kpDcP-68" value="" style="aspect=fixed;perimeter=ellipsePerimeter;html=1;align=center;shadow=0;dashed=0;fontColor=#4277BB;labelBackgroundColor=#ffffff;fontSize=12;spacingTop=3;image;image=img/lib/ibm/vpc/LoadBalancerPool.svg;fillColor=#FF0000;" vertex="1" parent="oH8qyKHxsSz--46kpDcP-94"><mxGeometry x="560" y="779.9099999999999" width="29.82" height="29.82" as="geometry"/></mxCell><mxCell id="oH8qyKHxsSz--46kpDcP-119" value="ACL: ingress" style="shape=mxgraph.ibm.box;prType=subnet;fontStyle=0;verticalAlign=top;align=left;spacingLeft=32;spacingTop=4;fillColor=#E6F0E2;rounded=0;whiteSpace=wrap;html=1;strokeColor=#00882B;strokeWidth=1;dashed=0;container=1;spacing=-4;collapsible=0;expand=0;recursiveResize=0;fontSize=10;" vertex="1" parent="oH8qyKHxsSz--46kpDcP-93"><mxGeometry x="30" y="60" width="620" height="130" as="geometry"/></mxCell><mxCell id="oH8qyKHxsSz--46kpDcP-120" value="&lt;font style=&quot;font-size: 11px&quot;&gt;10.3.0.0/26 - ingress03&lt;/font&gt;" style="sketch=0;outlineConnect=0;gradientColor=none;html=1;whiteSpace=wrap;fontSize=12;fontStyle=0;shape=mxgraph.aws4.group;grIcon=mxgraph.aws4.group_subnet;strokeColor=#879196;fillColor=none;verticalAlign=top;align=left;spacingLeft=30;fontColor=#879196;dashed=0;" vertex="1" parent="oH8qyKHxsSz--46kpDcP-93"><mxGeometry x="470" y="90" width="170" height="90" as="geometry"/></mxCell><mxCell id="oH8qyKHxsSz--46kpDcP-121" value="&lt;font style=&quot;font-size: 11px&quot;&gt;10.2.0.0/26 - ingress02&lt;/font&gt;" style="sketch=0;outlineConnect=0;gradientColor=none;html=1;whiteSpace=wrap;fontSize=12;fontStyle=0;shape=mxgraph.aws4.group;grIcon=mxgraph.aws4.group_subnet;strokeColor=#879196;fillColor=none;verticalAlign=top;align=left;spacingLeft=30;fontColor=#879196;dashed=0;" vertex="1" parent="oH8qyKHxsSz--46kpDcP-93"><mxGeometry x="250" y="90" width="180" height="90" as="geometry"/></mxCell><mxCell id="oH8qyKHxsSz--46kpDcP-122" value="&lt;font&gt;&lt;span style=&quot;font-size: 11px&quot;&gt;&lt;span&gt;&#9;&lt;/span&gt;10.1.0.0/26&amp;nbsp;- ingress01&lt;/span&gt;&lt;/font&gt;" style="sketch=0;outlineConnect=0;gradientColor=none;html=1;whiteSpace=wrap;fontSize=12;fontStyle=0;shape=mxgraph.aws4.group;grIcon=mxgraph.aws4.group_subnet;strokeColor=#879196;fillColor=none;verticalAlign=top;align=left;spacingLeft=30;fontColor=#879196;dashed=0;" vertex="1" parent="oH8qyKHxsSz--46kpDcP-93"><mxGeometry x="40" y="90" width="170" height="90" as="geometry"/></mxCell><mxCell id="oH8qyKHxsSz--46kpDcP-123" value="" style="aspect=fixed;perimeter=ellipsePerimeter;html=1;align=center;shadow=0;dashed=0;fontColor=#4277BB;labelBackgroundColor=#ffffff;fontSize=12;spacingTop=3;image;image=img/lib/ibm/vpc/VPNGateway.svg;" vertex="1" parent="oH8qyKHxsSz--46kpDcP-93"><mxGeometry x="140" y="120" width="40" height="40" as="geometry"/></mxCell><mxCell id="oH8qyKHxsSz--46kpDcP-124" value="VPN Gateway" style="text;html=1;align=center;verticalAlign=middle;resizable=0;points=[];autosize=1;strokeColor=none;fillColor=none;fontSize=10;" vertex="1" parent="oH8qyKHxsSz--46kpDcP-93"><mxGeometry x="120" y="160" width="80" height="20" as="geometry"/></mxCell><mxCell id="oH8qyKHxsSz--46kpDcP-125" value="" style="aspect=fixed;perimeter=ellipsePerimeter;html=1;align=center;shadow=0;dashed=0;fontColor=#4277BB;labelBackgroundColor=#ffffff;fontSize=12;spacingTop=3;image;image=img/lib/ibm/vpc/VPNGateway.svg;" vertex="1" parent="oH8qyKHxsSz--46kpDcP-93"><mxGeometry x="360.00000000000006" y="120" width="40" height="40" as="geometry"/></mxCell><mxCell id="oH8qyKHxsSz--46kpDcP-126" value="VPN Gateway" style="text;html=1;align=center;verticalAlign=middle;resizable=0;points=[];autosize=1;strokeColor=none;fillColor=none;fontSize=10;" vertex="1" parent="oH8qyKHxsSz--46kpDcP-93"><mxGeometry x="340.00000000000006" y="160" width="80" height="20" as="geometry"/></mxCell><mxCell id="oH8qyKHxsSz--46kpDcP-127" value="" style="aspect=fixed;perimeter=ellipsePerimeter;html=1;align=center;shadow=0;dashed=0;fontColor=#4277BB;labelBackgroundColor=#ffffff;fontSize=12;spacingTop=3;image;image=img/lib/ibm/vpc/VPNGateway.svg;" vertex="1" parent="oH8qyKHxsSz--46kpDcP-93"><mxGeometry x="570" y="120" width="40" height="40" as="geometry"/></mxCell><mxCell id="oH8qyKHxsSz--46kpDcP-128" value="VPN Gateway" style="text;html=1;align=center;verticalAlign=middle;resizable=0;points=[];autosize=1;strokeColor=none;fillColor=none;fontSize=10;" vertex="1" parent="oH8qyKHxsSz--46kpDcP-93"><mxGeometry x="550" y="160" width="80" height="20" as="geometry"/></mxCell><mxCell id="oH8qyKHxsSz--46kpDcP-129" value="" style="aspect=fixed;perimeter=ellipsePerimeter;html=1;align=center;shadow=0;dashed=0;fontColor=#4277BB;labelBackgroundColor=#ffffff;fontSize=12;spacingTop=3;image;image=img/lib/ibm/vpc/LoadBalancer.svg;" vertex="1" parent="oH8qyKHxsSz--46kpDcP-93"><mxGeometry x="680" y="260" width="40" height="40" as="geometry"/></mxCell><mxCell id="oH8qyKHxsSz--46kpDcP-130" value="Private LB" style="text;html=1;align=center;verticalAlign=middle;resizable=0;points=[];autosize=1;strokeColor=none;fillColor=none;fontSize=10;" vertex="1" parent="oH8qyKHxsSz--46kpDcP-93"><mxGeometry x="700" y="240" width="60" height="20" as="geometry"/></mxCell><mxCell id="oH8qyKHxsSz--46kpDcP-133" value="" style="aspect=fixed;perimeter=ellipsePerimeter;html=1;align=center;shadow=0;dashed=0;fontColor=#4277BB;labelBackgroundColor=#ffffff;fontSize=12;spacingTop=3;image;image=img/lib/ibm/vpc/VPNGateway.svg;" vertex="1" parent="oH8qyKHxsSz--46kpDcP-93"><mxGeometry x="65" y="120" width="40" height="40" as="geometry"/></mxCell><mxCell id="oH8qyKHxsSz--46kpDcP-134" value="VPN Server" style="text;html=1;align=center;verticalAlign=middle;resizable=0;points=[];autosize=1;strokeColor=none;fillColor=none;fontSize=10;" vertex="1" parent="oH8qyKHxsSz--46kpDcP-93"><mxGeometry x="50" y="160" width="70" height="20" as="geometry"/></mxCell><mxCell id="oH8qyKHxsSz--46kpDcP-135" value="" style="aspect=fixed;perimeter=ellipsePerimeter;html=1;align=center;shadow=0;dashed=0;fontColor=#4277BB;labelBackgroundColor=#ffffff;fontSize=12;spacingTop=3;image;image=img/lib/ibm/vpc/VPNGateway.svg;" vertex="1" parent="oH8qyKHxsSz--46kpDcP-93"><mxGeometry x="285.00000000000006" y="120" width="40" height="40" as="geometry"/></mxCell><mxCell id="oH8qyKHxsSz--46kpDcP-136" value="VPN Server" style="text;html=1;align=center;verticalAlign=middle;resizable=0;points=[];autosize=1;strokeColor=none;fillColor=none;fontSize=10;" vertex="1" parent="oH8qyKHxsSz--46kpDcP-93"><mxGeometry x="270.00000000000006" y="160" width="70" height="20" as="geometry"/></mxCell><mxCell id="oH8qyKHxsSz--46kpDcP-137" value="" style="aspect=fixed;perimeter=ellipsePerimeter;html=1;align=center;shadow=0;dashed=0;fontColor=#4277BB;labelBackgroundColor=#ffffff;fontSize=12;spacingTop=3;image;image=img/lib/ibm/vpc/VPNGateway.svg;" vertex="1" parent="oH8qyKHxsSz--46kpDcP-93"><mxGeometry x="495.00000000000006" y="120" width="40" height="40" as="geometry"/></mxCell><mxCell id="oH8qyKHxsSz--46kpDcP-138" value="VPN Server" style="text;html=1;align=center;verticalAlign=middle;resizable=0;points=[];autosize=1;strokeColor=none;fillColor=none;fontSize=10;" vertex="1" parent="oH8qyKHxsSz--46kpDcP-93"><mxGeometry x="480.00000000000006" y="160" width="70" height="20" as="geometry"/></mxCell><mxCell id="oH8qyKHxsSz--46kpDcP-139" value="" style="endArrow=classic;html=1;fontSize=10;strokeColor=#000000;rounded=0;" edge="1" parent="oH8qyKHxsSz--46kpDcP-93" source="oH8qyKHxsSz--46kpDcP-122" target="oH8qyKHxsSz--46kpDcP-129"><mxGeometry width="50" height="50" relative="1" as="geometry"><mxPoint x="350.09000000000003" y="300" as="sourcePoint"/><mxPoint x="400.09000000000003" y="250" as="targetPoint"/><Array as="points"><mxPoint x="125.09" y="200"/><mxPoint x="700.09" y="200"/></Array></mxGeometry></mxCell><mxCell id="oH8qyKHxsSz--46kpDcP-143" value="" style="endArrow=classic;html=1;fontSize=10;strokeColor=#000000;rounded=0;" edge="1" parent="oH8qyKHxsSz--46kpDcP-93" source="oH8qyKHxsSz--46kpDcP-121" target="oH8qyKHxsSz--46kpDcP-129"><mxGeometry width="50" height="50" relative="1" as="geometry"><mxPoint x="135.06230769230737" y="189.99999999999977" as="sourcePoint"/><mxPoint x="709.9999999999999" y="270" as="targetPoint"/><Array as="points"><mxPoint x="340.09000000000003" y="200"/><mxPoint x="701.09" y="200"/></Array></mxGeometry></mxCell><mxCell id="oH8qyKHxsSz--46kpDcP-144" value="" style="endArrow=classic;html=1;fontSize=10;strokeColor=#000000;rounded=0;" edge="1" parent="oH8qyKHxsSz--46kpDcP-93" source="oH8qyKHxsSz--46kpDcP-120" target="oH8qyKHxsSz--46kpDcP-129"><mxGeometry width="50" height="50" relative="1" as="geometry"><mxPoint x="350.0623076923074" y="189.99999999999977" as="sourcePoint"/><mxPoint x="709.9999999999999" y="270" as="targetPoint"/><Array as="points"><mxPoint x="555.09" y="200"/><mxPoint x="700.09" y="200"/></Array></mxGeometry></mxCell><mxCell id="oH8qyKHxsSz--46kpDcP-72" value="" style="endArrow=oval;html=1;fontSize=10;strokeColor=#000000;rounded=0;startArrow=oval;startFill=1;endFill=1;entryX=0;entryY=0.943;entryDx=0;entryDy=0;entryPerimeter=0;" edge="1" parent="oH8qyKHxsSz--46kpDcP-93" source="oH8qyKHxsSz--46kpDcP-61" target="oH8qyKHxsSz--46kpDcP-9"><mxGeometry width="50" height="50" relative="1" as="geometry"><mxPoint x="350" y="1924.6399999999999" as="sourcePoint"/><mxPoint x="700" y="980" as="targetPoint"/><Array as="points"><mxPoint x="555" y="880"/></Array></mxGeometry></mxCell><mxCell id="oH8qyKHxsSz--46kpDcP-84" value="" style="endArrow=oval;html=1;fontSize=10;fontColor=#000000;strokeColor=#000000;entryX=-0.011;entryY=0.707;entryDx=0;entryDy=0;entryPerimeter=0;startArrow=oval;startFill=1;endFill=1;" edge="1" parent="oH8qyKHxsSz--46kpDcP-93"><mxGeometry width="50" height="50" relative="1" as="geometry"><mxPoint x="750" y="810.24" as="sourcePoint"/><mxPoint x="809.0100000000002" y="810.0000000000002" as="targetPoint"/></mxGeometry></mxCell><mxCell id="S4G6Z6UGCeyrZd-CoMDP-1" value="" style="endArrow=oval;html=1;fontSize=10;strokeColor=#000000;rounded=0;startArrow=oval;startFill=1;endFill=1;exitX=0.494;exitY=0.992;exitDx=0;exitDy=0;exitPerimeter=0;entryX=0;entryY=0.943;entryDx=0;entryDy=0;entryPerimeter=0;" edge="1" parent="oH8qyKHxsSz--46kpDcP-93" source="oH8qyKHxsSz--46kpDcP-60" target="oH8qyKHxsSz--46kpDcP-9"><mxGeometry width="50" height="50" relative="1" as="geometry"><mxPoint x="130.07000000000016" y="965.0382" as="sourcePoint"/><mxPoint x="700" y="980" as="targetPoint"/><Array as="points"><mxPoint x="339" y="881"/></Array></mxGeometry></mxCell><mxCell id="S4G6Z6UGCeyrZd-CoMDP-0" value="" style="endArrow=oval;html=1;fontSize=10;strokeColor=#000000;rounded=0;startArrow=oval;startFill=1;endFill=1;exitX=0.471;exitY=1.005;exitDx=0;exitDy=0;exitPerimeter=0;entryX=-0.02;entryY=0.937;entryDx=0;entryDy=0;entryPerimeter=0;" edge="1" parent="oH8qyKHxsSz--46kpDcP-93" source="oH8qyKHxsSz--46kpDcP-59" target="oH8qyKHxsSz--46kpDcP-9"><mxGeometry width="50" height="50" relative="1" as="geometry"><mxPoint x="565" y="964.6399999999999" as="sourcePoint"/><mxPoint x="710" y="990" as="targetPoint"/><Array as="points"><mxPoint x="120" y="880"/></Array></mxGeometry></mxCell><mxCell id="oH8qyKHxsSz--46kpDcP-9" value="VPE&lt;br&gt;GW" style="rounded=0;whiteSpace=wrap;html=1;fontSize=10;fillColor=#f5f5f5;align=center;strokeColor=#666666;fontColor=#333333;" vertex="1" parent="oH8qyKHxsSz--46kpDcP-93"><mxGeometry x="700" y="740" width="50" height="150" as="geometry"/></mxCell><mxCell id="oH8qyKHxsSz--46kpDcP-10" value="" style="aspect=fixed;perimeter=ellipsePerimeter;html=1;align=center;shadow=0;dashed=0;fontColor=#4277BB;labelBackgroundColor=#ffffff;fontSize=12;spacingTop=3;image;image=img/lib/ibm/vpc/LoadBalancerPool.svg;fillColor=#FF0000;" vertex="1" parent="oH8qyKHxsSz--46kpDcP-93"><mxGeometry x="700" y="740" width="29.82" height="29.82" as="geometry"/></mxCell><mxCell id="oH8qyKHxsSz--46kpDcP-131" value="" style="aspect=fixed;perimeter=ellipsePerimeter;html=1;align=center;shadow=0;dashed=0;fontColor=#4277BB;labelBackgroundColor=#ffffff;fontSize=12;spacingTop=3;image;image=img/lib/ibm/vpc/LoadBalancer.svg;" vertex="1" parent="oH8qyKHxsSz--46kpDcP-93"><mxGeometry x="680" y="530" width="40" height="40" as="geometry"/></mxCell><mxCell id="oH8qyKHxsSz--46kpDcP-140" value="" style="endArrow=classic;html=1;fontSize=10;strokeColor=#000000;rounded=0;" edge="1" parent="oH8qyKHxsSz--46kpDcP-93" source="oH8qyKHxsSz--46kpDcP-131" target="oH8qyKHxsSz--46kpDcP-108"><mxGeometry width="50" height="50" relative="1" as="geometry"><mxPoint x="699.8182232669492" y="649.9999671989663" as="sourcePoint"/><mxPoint x="90.19" y="660.71" as="targetPoint"/><Array as="points"><mxPoint x="670" y="520"/><mxPoint x="90" y="520"/></Array></mxGeometry></mxCell><mxCell id="oH8qyKHxsSz--46kpDcP-141" value="" style="endArrow=classic;html=1;fontSize=10;strokeColor=#000000;rounded=0;" edge="1" parent="oH8qyKHxsSz--46kpDcP-93" source="oH8qyKHxsSz--46kpDcP-131" target="oH8qyKHxsSz--46kpDcP-111"><mxGeometry width="50" height="50" relative="1" as="geometry"><mxPoint x="699.8182232669492" y="649.9999671989663" as="sourcePoint"/><mxPoint x="520.09" y="640" as="targetPoint"/><Array as="points"><mxPoint x="670" y="520"/><mxPoint x="520" y="520"/></Array></mxGeometry></mxCell><mxCell id="oH8qyKHxsSz--46kpDcP-142" value="" style="endArrow=classic;html=1;fontSize=10;strokeColor=#000000;rounded=0;" edge="1" parent="oH8qyKHxsSz--46kpDcP-93" source="oH8qyKHxsSz--46kpDcP-131" target="oH8qyKHxsSz--46kpDcP-114"><mxGeometry width="50" height="50" relative="1" as="geometry"><mxPoint x="699.8182232669492" y="649.9999671989663" as="sourcePoint"/><mxPoint x="310.00999999999976" y="660.71" as="targetPoint"/><Array as="points"><mxPoint x="670" y="520"/><mxPoint x="305" y="520"/></Array></mxGeometry></mxCell><mxCell id="oH8qyKHxsSz--46kpDcP-132" value="Private LB" style="text;html=1;align=center;verticalAlign=middle;resizable=0;points=[];autosize=1;strokeColor=none;fillColor=none;fontSize=10;" vertex="1" parent="oH8qyKHxsSz--46kpDcP-93"><mxGeometry x="695" y="510" width="60" height="20" as="geometry"/></mxCell><mxCell id="oH8qyKHxsSz--46kpDcP-70" value="Private LB" style="text;html=1;align=center;verticalAlign=middle;resizable=0;points=[];autosize=1;strokeColor=none;fillColor=none;fontSize=10;" vertex="1" parent="oH8qyKHxsSz--46kpDcP-93"><mxGeometry x="-100" y="670" width="60" height="20" as="geometry"/></mxCell><mxCell id="oH8qyKHxsSz--46kpDcP-8" value="ACL: worker" style="shape=mxgraph.ibm.box;prType=subnet;fontStyle=0;verticalAlign=top;align=left;spacingLeft=32;spacingTop=4;fillColor=#E6F0E2;rounded=0;whiteSpace=wrap;html=1;strokeColor=#00882B;strokeWidth=1;dashed=0;container=1;spacing=-4;collapsible=0;expand=0;recursiveResize=0;fontSize=10;" vertex="1" parent="oH8qyKHxsSz--46kpDcP-93"><mxGeometry x="30" y="540" width="620" height="175" as="geometry"/></mxCell><mxCell id="oH8qyKHxsSz--46kpDcP-11" value="10.1.1.0/24 - worker1" style="sketch=0;outlineConnect=0;gradientColor=none;html=1;whiteSpace=wrap;fontSize=12;fontStyle=0;shape=mxgraph.aws4.group;grIcon=mxgraph.aws4.group_subnet;strokeColor=#879196;fillColor=none;verticalAlign=top;align=left;spacingLeft=30;fontColor=#879196;dashed=0;" vertex="1" parent="oH8qyKHxsSz--46kpDcP-93"><mxGeometry x="40" y="574.28" width="170" height="130" as="geometry"/></mxCell><mxCell id="oH8qyKHxsSz--46kpDcP-12" value="10.2.1.0/24 - worker2" style="sketch=0;outlineConnect=0;gradientColor=none;html=1;whiteSpace=wrap;fontSize=12;fontStyle=0;shape=mxgraph.aws4.group;grIcon=mxgraph.aws4.group_subnet;strokeColor=#879196;fillColor=none;verticalAlign=top;align=left;spacingLeft=30;fontColor=#879196;dashed=0;" vertex="1" parent="oH8qyKHxsSz--46kpDcP-93"><mxGeometry x="250" y="574.28" width="180" height="130" as="geometry"/></mxCell><mxCell id="oH8qyKHxsSz--46kpDcP-13" value="10.3.1.0/24 - worker3" style="sketch=0;outlineConnect=0;gradientColor=none;html=1;whiteSpace=wrap;fontSize=12;fontStyle=0;shape=mxgraph.aws4.group;grIcon=mxgraph.aws4.group_subnet;strokeColor=#879196;fillColor=none;verticalAlign=top;align=left;spacingLeft=30;fontColor=#879196;dashed=0;" vertex="1" parent="oH8qyKHxsSz--46kpDcP-93"><mxGeometry x="470" y="574.28" width="170" height="130" as="geometry"/></mxCell><mxCell id="oH8qyKHxsSz--46kpDcP-14" value="SG: VPC Default &amp;amp; Cluster" style="fontStyle=0;verticalAlign=top;align=left;spacingTop=-2;fillColor=none;rounded=0;whiteSpace=wrap;html=1;strokeColor=#FF0000;strokeWidth=2;dashed=1;container=1;collapsible=0;expand=0;recursiveResize=0;fontSize=10;" vertex="1" parent="oH8qyKHxsSz--46kpDcP-93"><mxGeometry x="50" y="604.28" width="580" height="90" as="geometry"/></mxCell><mxCell id="oH8qyKHxsSz--46kpDcP-15" value="" style="sketch=0;aspect=fixed;html=1;points=[];align=center;image;fontSize=12;image=img/lib/mscae/OpenShift.svg;fillColor=#FF0000;" vertex="1" parent="oH8qyKHxsSz--46kpDcP-14"><mxGeometry x="10" y="22" width="50" height="46" as="geometry"/></mxCell><mxCell id="oH8qyKHxsSz--46kpDcP-16" value="" style="sketch=0;aspect=fixed;html=1;points=[];align=center;image;fontSize=12;image=img/lib/mscae/OpenShift.svg;fillColor=#FF0000;" vertex="1" parent="oH8qyKHxsSz--46kpDcP-14"><mxGeometry x="80" y="38" width="50" height="46" as="geometry"/></mxCell><mxCell id="oH8qyKHxsSz--46kpDcP-17" value="" style="sketch=0;aspect=fixed;html=1;points=[];align=center;image;fontSize=12;image=img/lib/mscae/OpenShift.svg;fillColor=#FF0000;" vertex="1" parent="oH8qyKHxsSz--46kpDcP-14"><mxGeometry x="225" y="20" width="50" height="46" as="geometry"/></mxCell><mxCell id="oH8qyKHxsSz--46kpDcP-18" value="" style="sketch=0;aspect=fixed;html=1;points=[];align=center;image;fontSize=12;image=img/lib/mscae/OpenShift.svg;fillColor=#FF0000;" vertex="1" parent="oH8qyKHxsSz--46kpDcP-14"><mxGeometry x="300" y="38" width="50" height="46" as="geometry"/></mxCell><mxCell id="oH8qyKHxsSz--46kpDcP-19" value="" style="sketch=0;aspect=fixed;html=1;points=[];align=center;image;fontSize=12;image=img/lib/mscae/OpenShift.svg;fillColor=#FF0000;" vertex="1" parent="oH8qyKHxsSz--46kpDcP-14"><mxGeometry x="445" y="20" width="50" height="46" as="geometry"/></mxCell><mxCell id="oH8qyKHxsSz--46kpDcP-20" value="" style="sketch=0;aspect=fixed;html=1;points=[];align=center;image;fontSize=12;image=img/lib/mscae/OpenShift.svg;fillColor=#FF0000;" vertex="1" parent="oH8qyKHxsSz--46kpDcP-14"><mxGeometry x="520" y="38" width="50" height="46" as="geometry"/></mxCell><mxCell id="S4G6Z6UGCeyrZd-CoMDP-4" value="" style="endArrow=classic;html=1;rounded=0;fontSize=12;entryX=-0.002;entryY=0.514;entryDx=0;entryDy=0;entryPerimeter=0;" edge="1" parent="oH8qyKHxsSz--46kpDcP-93" target="oH8qyKHxsSz--46kpDcP-14"><mxGeometry width="50" height="50" relative="1" as="geometry"><mxPoint x="-50" y="650" as="sourcePoint"/><mxPoint x="220" y="620" as="targetPoint"/></mxGeometry></mxCell><mxCell id="S4G6Z6UGCeyrZd-CoMDP-8" value="" style="endArrow=classic;html=1;rounded=0;fontSize=12;exitX=1.002;exitY=0.536;exitDx=0;exitDy=0;exitPerimeter=0;" edge="1" parent="oH8qyKHxsSz--46kpDcP-93" source="oH8qyKHxsSz--46kpDcP-14" target="oH8qyKHxsSz--46kpDcP-131"><mxGeometry width="50" height="50" relative="1" as="geometry"><mxPoint x="340" y="780" as="sourcePoint"/><mxPoint x="390" y="730" as="targetPoint"/><Array as="points"><mxPoint x="700" y="653"/></Array></mxGeometry></mxCell><mxCell id="oH8qyKHxsSz--46kpDcP-145" value="Consumer" style="shape=mxgraph.ibm.box;prType=public;fontStyle=0;verticalAlign=top;align=left;spacingLeft=32;spacingTop=4;fillColor=none;rounded=0;whiteSpace=wrap;html=1;strokeColor=#4376BB;strokeWidth=3;dashed=0;container=1;spacing=-4;collapsible=0;expand=0;recursiveResize=0;fontSize=10;" vertex="1" parent="oH8qyKHxsSz--46kpDcP-1"><mxGeometry x="-140" y="20" width="80" height="220" as="geometry"/></mxCell><mxCell id="oH8qyKHxsSz--46kpDcP-146" value="Internet" style="aspect=fixed;perimeter=ellipsePerimeter;html=1;align=center;shadow=0;dashed=0;labelBackgroundColor=#ffffff;fontSize=12;spacingTop=3;image;image=img/lib/ibm/vpc/Internet.svg;fillColor=#FF0000;spacing=0;" vertex="1" parent="oH8qyKHxsSz--46kpDcP-145"><mxGeometry x="20" y="140" width="40" height="40" as="geometry"/></mxCell><mxCell id="oH8qyKHxsSz--46kpDcP-147" value="Users" style="aspect=fixed;perimeter=ellipsePerimeter;html=1;align=center;shadow=0;dashed=0;labelBackgroundColor=#ffffff;fontSize=12;spacingTop=3;image;image=img/lib/ibm/users/user.svg;fillColor=#FF0000;" vertex="1" parent="oH8qyKHxsSz--46kpDcP-1"><mxGeometry x="-120" y="60" width="40" height="40" as="geometry"/></mxCell><mxCell id="oH8qyKHxsSz--46kpDcP-148" value="" style="endArrow=classic;html=1;fontSize=10;" edge="1" parent="oH8qyKHxsSz--46kpDcP-1" source="oH8qyKHxsSz--46kpDcP-147" target="oH8qyKHxsSz--46kpDcP-146"><mxGeometry width="50" height="50" relative="1" as="geometry"><mxPoint x="160" y="370" as="sourcePoint"/><mxPoint x="210" y="320" as="targetPoint"/></mxGeometry></mxCell><mxCell id="oH8qyKHxsSz--46kpDcP-149" value="ACL: bastion" style="shape=mxgraph.ibm.box;prType=subnet;fontStyle=0;verticalAlign=top;align=left;spacingLeft=32;spacingTop=4;fillColor=#E6F0E2;rounded=0;whiteSpace=wrap;html=1;strokeColor=#00882B;strokeWidth=1;dashed=0;container=1;spacing=-4;collapsible=0;expand=0;recursiveResize=0;fontSize=10;" vertex="1" parent="oH8qyKHxsSz--46kpDcP-1"><mxGeometry x="130.09" y="30" width="620" height="130" as="geometry"/></mxCell><mxCell id="oH8qyKHxsSz--46kpDcP-150" value="&lt;font style=&quot;font-size: 11px&quot;&gt;10.3.0.64/26 - bastion03&lt;/font&gt;" style="sketch=0;outlineConnect=0;gradientColor=none;html=1;whiteSpace=wrap;fontSize=12;fontStyle=0;shape=mxgraph.aws4.group;grIcon=mxgraph.aws4.group_subnet;strokeColor=#879196;fillColor=none;verticalAlign=top;align=left;spacingLeft=30;fontColor=#879196;dashed=0;" vertex="1" parent="oH8qyKHxsSz--46kpDcP-1"><mxGeometry x="570.09" y="60" width="170" height="90" as="geometry"/></mxCell><mxCell id="oH8qyKHxsSz--46kpDcP-151" value="&lt;font style=&quot;font-size: 11px&quot;&gt;10.2.0.64/26 - bastion02&lt;/font&gt;" style="sketch=0;outlineConnect=0;gradientColor=none;html=1;whiteSpace=wrap;fontSize=12;fontStyle=0;shape=mxgraph.aws4.group;grIcon=mxgraph.aws4.group_subnet;strokeColor=#879196;fillColor=none;verticalAlign=top;align=left;spacingLeft=30;fontColor=#879196;dashed=0;" vertex="1" parent="oH8qyKHxsSz--46kpDcP-1"><mxGeometry x="350.0899999999999" y="60" width="180" height="90" as="geometry"/></mxCell><mxCell id="oH8qyKHxsSz--46kpDcP-152" value="&lt;font style=&quot;font-size: 11px&quot;&gt;10.1.0.64/26 - bastion01&lt;/font&gt;" style="sketch=0;outlineConnect=0;gradientColor=none;html=1;whiteSpace=wrap;fontSize=12;fontStyle=0;shape=mxgraph.aws4.group;grIcon=mxgraph.aws4.group_subnet;strokeColor=#879196;fillColor=none;verticalAlign=top;align=left;spacingLeft=30;fontColor=#879196;dashed=0;" vertex="1" parent="oH8qyKHxsSz--46kpDcP-1"><mxGeometry x="140.09" y="60" width="170" height="90" as="geometry"/></mxCell><mxCell id="oH8qyKHxsSz--46kpDcP-153" value="Bastion" style="text;html=1;align=center;verticalAlign=middle;resizable=0;points=[];autosize=1;strokeColor=none;fillColor=none;fontSize=10;" vertex="1" parent="oH8qyKHxsSz--46kpDcP-1"><mxGeometry x="459.90999999999997" y="130" width="50" height="20" as="geometry"/></mxCell><mxCell id="oH8qyKHxsSz--46kpDcP-154" value="" style="aspect=fixed;perimeter=ellipsePerimeter;html=1;align=center;shadow=0;dashed=0;fontColor=#4277BB;labelBackgroundColor=#ffffff;fontSize=12;spacingTop=3;image;image=img/lib/ibm/vpc/Instance.svg;fillColor=#FF0000;" vertex="1" parent="oH8qyKHxsSz--46kpDcP-1"><mxGeometry x="245.09" y="90" width="40" height="40" as="geometry"/></mxCell><mxCell id="oH8qyKHxsSz--46kpDcP-155" value="Bastion" style="text;html=1;align=center;verticalAlign=middle;resizable=0;points=[];autosize=1;strokeColor=none;fillColor=none;fontSize=10;" vertex="1" parent="oH8qyKHxsSz--46kpDcP-1"><mxGeometry x="240.09" y="130" width="50" height="20" as="geometry"/></mxCell><mxCell id="oH8qyKHxsSz--46kpDcP-156" value="" style="aspect=fixed;perimeter=ellipsePerimeter;html=1;align=center;shadow=0;dashed=0;fontColor=#4277BB;labelBackgroundColor=#ffffff;fontSize=12;spacingTop=3;image;image=img/lib/ibm/vpc/Instance.svg;fillColor=#FF0000;" vertex="1" parent="oH8qyKHxsSz--46kpDcP-1"><mxGeometry x="675.09" y="90" width="40" height="40" as="geometry"/></mxCell><mxCell id="oH8qyKHxsSz--46kpDcP-157" value="Bastion" style="text;html=1;align=center;verticalAlign=middle;resizable=0;points=[];autosize=1;strokeColor=none;fillColor=none;fontSize=10;" vertex="1" parent="oH8qyKHxsSz--46kpDcP-1"><mxGeometry x="670.09" y="130" width="50" height="20" as="geometry"/></mxCell><mxCell id="oH8qyKHxsSz--46kpDcP-158" value="" style="aspect=fixed;perimeter=ellipsePerimeter;html=1;align=center;shadow=0;dashed=0;fontColor=#4277BB;labelBackgroundColor=#ffffff;fontSize=12;spacingTop=3;image;image=img/lib/ibm/vpc/Instance.svg;fillColor=#FF0000;" vertex="1" parent="oH8qyKHxsSz--46kpDcP-1"><mxGeometry x="464.90999999999997" y="90" width="40" height="40" as="geometry"/></mxCell><mxCell id="oH8qyKHxsSz--46kpDcP-159" value="" style="aspect=fixed;perimeter=ellipsePerimeter;html=1;align=center;shadow=0;dashed=0;fontColor=#4277BB;labelBackgroundColor=#ffffff;fontSize=12;spacingTop=3;image;image=img/lib/ibm/vpc/LoadBalancer.svg;" vertex="1" parent="oH8qyKHxsSz--46kpDcP-1"><mxGeometry x="165.08999999999997" y="90" width="40" height="40" as="geometry"/></mxCell><mxCell id="oH8qyKHxsSz--46kpDcP-160" value="" style="endArrow=classic;html=1;fontSize=10;" edge="1" parent="oH8qyKHxsSz--46kpDcP-1" source="oH8qyKHxsSz--46kpDcP-159" target="oH8qyKHxsSz--46kpDcP-154"><mxGeometry width="50" height="50" relative="1" as="geometry"><mxPoint x="-524.8199999999999" y="970" as="sourcePoint"/><mxPoint x="245.09000000002533" y="110" as="targetPoint"/></mxGeometry></mxCell><mxCell id="oH8qyKHxsSz--46kpDcP-161" value="" style="aspect=fixed;perimeter=ellipsePerimeter;html=1;align=center;shadow=0;dashed=0;fontColor=#4277BB;labelBackgroundColor=#ffffff;fontSize=12;spacingTop=3;image;image=img/lib/ibm/vpc/LoadBalancer.svg;" vertex="1" parent="oH8qyKHxsSz--46kpDcP-1"><mxGeometry x="384.90999999999997" y="90" width="40" height="40" as="geometry"/></mxCell><mxCell id="oH8qyKHxsSz--46kpDcP-162" value="" style="endArrow=classic;html=1;fontSize=10;" edge="1" parent="oH8qyKHxsSz--46kpDcP-1" source="oH8qyKHxsSz--46kpDcP-161" target="oH8qyKHxsSz--46kpDcP-158"><mxGeometry width="50" height="50" relative="1" as="geometry"><mxPoint x="-305" y="970" as="sourcePoint"/><mxPoint x="464.9100000000253" y="110" as="targetPoint"/></mxGeometry></mxCell><mxCell id="oH8qyKHxsSz--46kpDcP-163" value="" style="aspect=fixed;perimeter=ellipsePerimeter;html=1;align=center;shadow=0;dashed=0;fontColor=#4277BB;labelBackgroundColor=#ffffff;fontSize=12;spacingTop=3;image;image=img/lib/ibm/vpc/LoadBalancer.svg;" vertex="1" parent="oH8qyKHxsSz--46kpDcP-1"><mxGeometry x="595.09" y="90" width="40" height="40" as="geometry"/></mxCell><mxCell id="oH8qyKHxsSz--46kpDcP-164" value="" style="endArrow=classic;html=1;fontSize=10;" edge="1" parent="oH8qyKHxsSz--46kpDcP-1" source="oH8qyKHxsSz--46kpDcP-163" target="oH8qyKHxsSz--46kpDcP-156"><mxGeometry width="50" height="50" relative="1" as="geometry"><mxPoint x="-94.82000000000002" y="970" as="sourcePoint"/><mxPoint x="675.0900000000253" y="110" as="targetPoint"/></mxGeometry></mxCell><mxCell id="oH8qyKHxsSz--46kpDcP-165" value="" style="endArrow=classic;html=1;fontSize=10;strokeColor=#000000;rounded=0;" edge="1" parent="oH8qyKHxsSz--46kpDcP-1" source="oH8qyKHxsSz--46kpDcP-129" target="oH8qyKHxsSz--46kpDcP-163"><mxGeometry width="50" height="50" relative="1" as="geometry"><mxPoint x="380.09000000000003" y="120" as="sourcePoint"/><mxPoint x="430.09000000000003" y="70" as="targetPoint"/><Array as="points"><mxPoint x="800.09" y="170"/><mxPoint x="615.09" y="170"/></Array></mxGeometry></mxCell><mxCell id="oH8qyKHxsSz--46kpDcP-166" value="" style="endArrow=classic;html=1;fontSize=10;strokeColor=#000000;rounded=0;" edge="1" parent="oH8qyKHxsSz--46kpDcP-1" source="oH8qyKHxsSz--46kpDcP-129" target="oH8qyKHxsSz--46kpDcP-161"><mxGeometry width="50" height="50" relative="1" as="geometry"><mxPoint x="820.2342603554988" y="127.4536623433637" as="sourcePoint"/><mxPoint x="625.09" y="140" as="targetPoint"/><Array as="points"><mxPoint x="800.09" y="170"/><mxPoint x="405.09000000000003" y="170"/></Array></mxGeometry></mxCell><mxCell id="oH8qyKHxsSz--46kpDcP-167" value="" style="endArrow=classic;html=1;fontSize=10;strokeColor=#000000;rounded=0;" edge="1" parent="oH8qyKHxsSz--46kpDcP-1" source="oH8qyKHxsSz--46kpDcP-129" target="oH8qyKHxsSz--46kpDcP-159"><mxGeometry width="50" height="50" relative="1" as="geometry"><mxPoint x="820.2342603554988" y="127.4536623433637" as="sourcePoint"/><mxPoint x="414.90999999999974" y="140" as="targetPoint"/><Array as="points"><mxPoint x="800.09" y="170"/><mxPoint x="185.09" y="170"/></Array></mxGeometry></mxCell><mxCell id="oH8qyKHxsSz--46kpDcP-170" value="Remote&lt;br&gt;Employee" style="shape=mxgraph.ibm.box;prType=public;fontStyle=0;verticalAlign=top;align=left;spacingLeft=32;spacingTop=4;fillColor=none;rounded=0;whiteSpace=wrap;html=1;strokeColor=#4376BB;strokeWidth=3;dashed=0;container=1;spacing=-4;collapsible=0;expand=0;recursiveResize=0;fontSize=10;" vertex="1" parent="oH8qyKHxsSz--46kpDcP-1"><mxGeometry x="-140" y="-200" width="80" height="200" as="geometry"/></mxCell><mxCell id="oH8qyKHxsSz--46kpDcP-171" value="" style="aspect=fixed;perimeter=ellipsePerimeter;html=1;align=center;shadow=0;dashed=0;fontColor=#4277BB;labelBackgroundColor=#ffffff;fontSize=12;spacingTop=3;image;image=img/lib/ibm/vpc/Internet.svg;fillColor=#FF0000;" vertex="1" parent="oH8qyKHxsSz--46kpDcP-170"><mxGeometry x="20" y="140" width="40" height="40" as="geometry"/></mxCell><mxCell id="oH8qyKHxsSz--46kpDcP-172" value="Remote&lt;br&gt;Employee" style="aspect=fixed;perimeter=ellipsePerimeter;html=1;align=center;shadow=0;dashed=0;labelBackgroundColor=#ffffff;fontSize=12;spacingTop=3;image;image=img/lib/ibm/users/user.svg;fillColor=#FF0000;spacing=0;" vertex="1" parent="oH8qyKHxsSz--46kpDcP-1"><mxGeometry x="-120" y="-150" width="40" height="40" as="geometry"/></mxCell><mxCell id="oH8qyKHxsSz--46kpDcP-173" value="" style="endArrow=classic;html=1;fontSize=10;" edge="1" parent="oH8qyKHxsSz--46kpDcP-1" source="oH8qyKHxsSz--46kpDcP-172" target="oH8qyKHxsSz--46kpDcP-171"><mxGeometry width="50" height="50" relative="1" as="geometry"><mxPoint x="160" y="160" as="sourcePoint"/><mxPoint x="210" y="110" as="targetPoint"/></mxGeometry></mxCell><mxCell id="oH8qyKHxsSz--46kpDcP-174" value="" style="endArrow=classic;html=1;fontSize=10;fontColor=#000000;strokeColor=#000000;" edge="1" parent="oH8qyKHxsSz--46kpDcP-1" source="oH8qyKHxsSz--46kpDcP-171" target="oH8qyKHxsSz--46kpDcP-133"><mxGeometry width="50" height="50" relative="1" as="geometry"><mxPoint x="270" y="90" as="sourcePoint"/><mxPoint x="320" y="40" as="targetPoint"/></mxGeometry></mxCell><mxCell id="oH8qyKHxsSz--46kpDcP-175" value="Enterprise&lt;br&gt;Network" style="shape=mxgraph.ibm.box;prType=enterprise;fontStyle=0;verticalAlign=top;align=left;spacingLeft=32;spacingTop=4;fillColor=none;rounded=0;whiteSpace=wrap;html=1;strokeColor=#4376BB;strokeWidth=3;dashed=0;container=1;spacing=-4;collapsible=0;expand=0;recursiveResize=0;fontSize=10;fontColor=#000000;" vertex="1" parent="oH8qyKHxsSz--46kpDcP-1"><mxGeometry x="1060" y="-200" width="100" height="390" as="geometry"/></mxCell><mxCell id="oH8qyKHxsSz--46kpDcP-176" value="Enterprise&lt;br&gt;Directory" style="aspect=fixed;perimeter=ellipsePerimeter;html=1;align=center;shadow=0;dashed=0;labelBackgroundColor=#ffffff;fontSize=12;spacingTop=3;image;image=img/lib/ibm/data/enterprise_user_directory.svg;strokeColor=#7DBC41;strokeWidth=3;fillColor=#FFFFFF;" vertex="1" parent="oH8qyKHxsSz--46kpDcP-175"><mxGeometry x="30" y="50" width="40" height="40" as="geometry"/></mxCell><mxCell id="oH8qyKHxsSz--46kpDcP-177" value="Enterprise&lt;br&gt;User" style="aspect=fixed;perimeter=ellipsePerimeter;html=1;align=center;shadow=0;dashed=0;labelBackgroundColor=#ffffff;fontSize=12;spacingTop=3;image;image=img/lib/ibm/users/user.svg;strokeColor=#7DBC41;strokeWidth=3;fillColor=#FFFFFF;" vertex="1" parent="oH8qyKHxsSz--46kpDcP-175"><mxGeometry x="30" y="170" width="40" height="40" as="geometry"/></mxCell><mxCell id="oH8qyKHxsSz--46kpDcP-178" value="Enterprise&lt;br&gt;Application" style="aspect=fixed;perimeter=ellipsePerimeter;html=1;align=center;shadow=0;dashed=0;labelBackgroundColor=#ffffff;fontSize=12;spacingTop=3;image;image=img/lib/ibm/applications/enterprise_applications.svg;strokeColor=#7DBC41;strokeWidth=3;fillColor=#FFFFFF;" vertex="1" parent="oH8qyKHxsSz--46kpDcP-175"><mxGeometry x="30" y="300" width="40" height="40" as="geometry"/></mxCell><mxCell id="oH8qyKHxsSz--46kpDcP-179" value="Direct&lt;br&gt;Link" style="aspect=fixed;perimeter=ellipsePerimeter;html=1;align=center;shadow=0;dashed=0;labelBackgroundColor=#ffffff;fontSize=12;spacingTop=3;image;image=img/lib/ibm/vpc/DirectLink.svg;strokeColor=#7DBC41;strokeWidth=3;fillColor=#FFFFFF;" vertex="1" parent="oH8qyKHxsSz--46kpDcP-1"><mxGeometry x="940" y="-140" width="40" height="40" as="geometry"/></mxCell><mxCell id="oH8qyKHxsSz--46kpDcP-180" value="" style="endArrow=classic;startArrow=classic;html=1;fontSize=10;fontColor=#000000;strokeColor=#000000;exitX=1.001;exitY=0.064;exitDx=0;exitDy=0;exitPerimeter=0;" edge="1" parent="oH8qyKHxsSz--46kpDcP-1" source="oH8qyKHxsSz--46kpDcP-93" target="oH8qyKHxsSz--46kpDcP-179"><mxGeometry width="50" height="50" relative="1" as="geometry"><mxPoint x="980" y="200" as="sourcePoint"/><mxPoint x="1030" y="150" as="targetPoint"/></mxGeometry></mxCell><mxCell id="oH8qyKHxsSz--46kpDcP-181" value="" style="endArrow=classic;startArrow=classic;html=1;fontSize=10;fontColor=#000000;strokeColor=#000000;entryX=0;entryY=0.205;entryDx=0;entryDy=0;entryPerimeter=0;" edge="1" parent="oH8qyKHxsSz--46kpDcP-1" source="oH8qyKHxsSz--46kpDcP-179" target="oH8qyKHxsSz--46kpDcP-175"><mxGeometry width="50" height="50" relative="1" as="geometry"><mxPoint x="980" y="200" as="sourcePoint"/><mxPoint x="1030" y="150" as="targetPoint"/></mxGeometry></mxCell><mxCell id="oH8qyKHxsSz--46kpDcP-182" value="" style="endArrow=classic;startArrow=classic;html=1;fontSize=10;fontColor=#000000;strokeColor=#000000;entryX=0;entryY=0.41;entryDx=0;entryDy=0;entryPerimeter=0;" edge="1" parent="oH8qyKHxsSz--46kpDcP-1" source="oH8qyKHxsSz--46kpDcP-127" target="oH8qyKHxsSz--46kpDcP-175"><mxGeometry width="50" height="50" relative="1" as="geometry"><mxPoint x="980" y="200" as="sourcePoint"/><mxPoint x="1030" y="150" as="targetPoint"/></mxGeometry></mxCell><mxCell id="oH8qyKHxsSz--46kpDcP-184" value="" style="endArrow=classic;html=1;rounded=0;fontSize=12;" edge="1" parent="oH8qyKHxsSz--46kpDcP-1" source="oH8qyKHxsSz--46kpDcP-146" target="oH8qyKHxsSz--46kpDcP-89"><mxGeometry width="50" height="50" relative="1" as="geometry"><mxPoint x="250" y="410" as="sourcePoint"/><mxPoint x="300" y="360" as="targetPoint"/></mxGeometry></mxCell></root></mxGraphModel></diagram><diagram name="quick start" id="GOIypw8XVNYKStubm5lA"><mxGraphModel dx="749" dy="1367" grid="1" gridSize="10" guides="1" tooltips="1" connect="0" arrows="1" fold="1" page="1" pageScale="1" pageWidth="1100" pageHeight="850" math="0" shadow="0"><root><mxCell id="5SWDZmiy2JB9zqztFumV-0"/><mxCell id="5SWDZmiy2JB9zqztFumV-1" parent="5SWDZmiy2JB9zqztFumV-0"/><mxCell id="5SWDZmiy2JB9zqztFumV-2" value="IBM Cloud" style="shape=mxgraph.ibm.box;prType=cloud;fontStyle=0;verticalAlign=top;align=left;spacingLeft=32;spacingTop=4;fillColor=none;rounded=0;whiteSpace=wrap;html=1;strokeColor=#4376BB;strokeWidth=3;dashed=0;container=1;spacing=-4;collapsible=0;expand=0;recursiveResize=0;" parent="5SWDZmiy2JB9zqztFumV-1" vertex="1"><mxGeometry x="20" y="-200" width="910" height="330" as="geometry"/></mxCell><mxCell id="5SWDZmiy2JB9zqztFumV-4" value="Cloud Services" style="fontStyle=0;verticalAlign=top;align=center;spacingTop=-2;fillColor=none;rounded=0;whiteSpace=wrap;html=1;strokeColor=#4376BB;strokeWidth=1;dashed=0;container=1;collapsible=0;expand=0;recursiveResize=0;fontSize=10;" parent="5SWDZmiy2JB9zqztFumV-2" vertex="1"><mxGeometry x="800" y="20" width="90" height="290" as="geometry"/></mxCell><mxCell id="5SWDZmiy2JB9zqztFumV-5" value="Logging" style="aspect=fixed;perimeter=ellipsePerimeter;html=1;align=center;shadow=0;dashed=0;labelBackgroundColor=#ffffff;fontSize=12;spacingTop=3;image;image=img/lib/ibm/infrastructure/monitoring_logging.svg;fillColor=#FF0000;" parent="5SWDZmiy2JB9zqztFumV-4" vertex="1"><mxGeometry x="25" y="110" width="40" height="40" as="geometry"/></mxCell><mxCell id="5SWDZmiy2JB9zqztFumV-6" value="&lt;font color=&quot;#000000&quot;&gt;Object&lt;br&gt;Storage&lt;/font&gt;" style="aspect=fixed;perimeter=ellipsePerimeter;html=1;align=center;shadow=0;dashed=0;fontColor=#4277BB;labelBackgroundColor=#ffffff;fontSize=12;spacingTop=3;image;image=img/lib/ibm/vpc/ObjectStorage.svg;fillColor=#FF0000;" parent="5SWDZmiy2JB9zqztFumV-4" vertex="1"><mxGeometry x="25" y="190" width="40" height="40" as="geometry"/></mxCell><mxCell id="5SWDZmiy2JB9zqztFumV-8" value="Monitoring" style="aspect=fixed;perimeter=ellipsePerimeter;html=1;align=center;shadow=0;dashed=0;labelBackgroundColor=#ffffff;fontSize=12;spacingTop=3;image;image=img/lib/ibm/infrastructure/monitoring.svg;fillColor=#FF0000;" parent="5SWDZmiy2JB9zqztFumV-4" vertex="1"><mxGeometry x="25" y="30" width="40" height="40" as="geometry"/></mxCell><mxCell id="5SWDZmiy2JB9zqztFumV-16" value="quick start (VPC)" style="shape=mxgraph.ibm.box;prType=vpc;fontStyle=0;verticalAlign=top;align=left;spacingLeft=32;spacingTop=4;fillColor=none;rounded=0;whiteSpace=wrap;html=1;strokeColor=#4376BB;strokeWidth=2;dashed=0;container=1;spacing=-4;collapsible=0;expand=0;recursiveResize=0;" parent="5SWDZmiy2JB9zqztFumV-1" vertex="1"><mxGeometry x="100" y="-180" width="700" height="290" as="geometry"/></mxCell><mxCell id="5SWDZmiy2JB9zqztFumV-17" value="Zone 2 - 10.2.0.0/22" style="shape=mxgraph.ibm.box;prType=zone;fontStyle=0;verticalAlign=top;align=left;spacingLeft=32;spacingTop=4;fillColor=#E0E0E0;rounded=0;whiteSpace=wrap;html=1;strokeColor=#919191;strokeWidth=1;dashed=0;container=1;spacing=-4;collapsible=0;expand=0;recursiveResize=0;" parent="5SWDZmiy2JB9zqztFumV-16" vertex="1"><mxGeometry x="240" y="30" width="200" height="240" as="geometry"/></mxCell><mxCell id="5SWDZmiy2JB9zqztFumV-18" value="Zone 3 - 10.3.0.0/22" style="shape=mxgraph.ibm.box;prType=zone;fontStyle=0;verticalAlign=top;align=left;spacingLeft=32;spacingTop=4;fillColor=#E0E0E0;rounded=0;whiteSpace=wrap;html=1;strokeColor=#919191;strokeWidth=1;dashed=0;container=1;spacing=-4;collapsible=0;expand=0;recursiveResize=0;" parent="5SWDZmiy2JB9zqztFumV-16" vertex="1"><mxGeometry x="460" y="30" width="200" height="240" as="geometry"/></mxCell><mxCell id="5SWDZmiy2JB9zqztFumV-19" value="Zone 1 - 10.1.0.0/22" style="shape=mxgraph.ibm.box;prType=zone;fontStyle=0;verticalAlign=top;align=left;spacingLeft=32;spacingTop=4;fillColor=#E0E0E0;rounded=0;whiteSpace=wrap;html=1;strokeColor=#919191;strokeWidth=1;dashed=0;container=1;spacing=-4;collapsible=0;expand=0;recursiveResize=0;" parent="5SWDZmiy2JB9zqztFumV-16" vertex="1"><mxGeometry x="20" y="30" width="200" height="240" as="geometry"/></mxCell><mxCell id="5SWDZmiy2JB9zqztFumV-85" value="ACL: worker" style="shape=mxgraph.ibm.box;prType=subnet;fontStyle=0;verticalAlign=top;align=left;spacingLeft=32;spacingTop=4;fillColor=#E6F0E2;rounded=0;whiteSpace=wrap;html=1;strokeColor=#00882B;strokeWidth=1;dashed=0;container=1;spacing=-4;collapsible=0;expand=0;recursiveResize=0;fontSize=10;" parent="5SWDZmiy2JB9zqztFumV-19" vertex="1"><mxGeometry x="10" y="50" width="620" height="175" as="geometry"/></mxCell><mxCell id="5SWDZmiy2JB9zqztFumV-86" value="10.1.1.0/24 - worker1" style="sketch=0;outlineConnect=0;gradientColor=none;html=1;whiteSpace=wrap;fontSize=12;fontStyle=0;shape=mxgraph.aws4.group;grIcon=mxgraph.aws4.group_subnet;strokeColor=#879196;fillColor=none;verticalAlign=top;align=left;spacingLeft=30;fontColor=#879196;dashed=0;" parent="5SWDZmiy2JB9zqztFumV-19" vertex="1"><mxGeometry x="20" y="84.27999999999997" width="170" height="130" as="geometry"/></mxCell><mxCell id="5SWDZmiy2JB9zqztFumV-87" value="10.2.1.0/24 - worker2" style="sketch=0;outlineConnect=0;gradientColor=none;html=1;whiteSpace=wrap;fontSize=12;fontStyle=0;shape=mxgraph.aws4.group;grIcon=mxgraph.aws4.group_subnet;strokeColor=#879196;fillColor=none;verticalAlign=top;align=left;spacingLeft=30;fontColor=#879196;dashed=0;" parent="5SWDZmiy2JB9zqztFumV-19" vertex="1"><mxGeometry x="230" y="84.27999999999997" width="180" height="130" as="geometry"/></mxCell><mxCell id="5SWDZmiy2JB9zqztFumV-88" value="10.3.1.0/24 - worker3" style="sketch=0;outlineConnect=0;gradientColor=none;html=1;whiteSpace=wrap;fontSize=12;fontStyle=0;shape=mxgraph.aws4.group;grIcon=mxgraph.aws4.group_subnet;strokeColor=#879196;fillColor=none;verticalAlign=top;align=left;spacingLeft=30;fontColor=#879196;dashed=0;" parent="5SWDZmiy2JB9zqztFumV-19" vertex="1"><mxGeometry x="450" y="84.27999999999997" width="170" height="130" as="geometry"/></mxCell><mxCell id="5SWDZmiy2JB9zqztFumV-89" value="SG: VPC Default &amp;amp; Cluster" style="fontStyle=0;verticalAlign=top;align=left;spacingTop=-2;fillColor=none;rounded=0;whiteSpace=wrap;html=1;strokeColor=#FF0000;strokeWidth=2;dashed=1;container=1;collapsible=0;expand=0;recursiveResize=0;fontSize=10;" parent="5SWDZmiy2JB9zqztFumV-19" vertex="1"><mxGeometry x="30" y="114.27999999999997" width="580" height="90" as="geometry"/></mxCell><mxCell id="5SWDZmiy2JB9zqztFumV-90" value="" style="sketch=0;aspect=fixed;html=1;points=[];align=center;image;fontSize=12;image=img/lib/mscae/OpenShift.svg;fillColor=#FF0000;" parent="5SWDZmiy2JB9zqztFumV-89" vertex="1"><mxGeometry x="10" y="22" width="50" height="46" as="geometry"/></mxCell><mxCell id="5SWDZmiy2JB9zqztFumV-91" value="" style="sketch=0;aspect=fixed;html=1;points=[];align=center;image;fontSize=12;image=img/lib/mscae/OpenShift.svg;fillColor=#FF0000;" parent="5SWDZmiy2JB9zqztFumV-89" vertex="1"><mxGeometry x="80" y="38" width="50" height="46" as="geometry"/></mxCell><mxCell id="5SWDZmiy2JB9zqztFumV-92" value="" style="sketch=0;aspect=fixed;html=1;points=[];align=center;image;fontSize=12;image=img/lib/mscae/OpenShift.svg;fillColor=#FF0000;" parent="5SWDZmiy2JB9zqztFumV-89" vertex="1"><mxGeometry x="225" y="20" width="50" height="46" as="geometry"/></mxCell><mxCell id="5SWDZmiy2JB9zqztFumV-93" value="" style="sketch=0;aspect=fixed;html=1;points=[];align=center;image;fontSize=12;image=img/lib/mscae/OpenShift.svg;fillColor=#FF0000;" parent="5SWDZmiy2JB9zqztFumV-89" vertex="1"><mxGeometry x="300" y="38" width="50" height="46" as="geometry"/></mxCell><mxCell id="5SWDZmiy2JB9zqztFumV-94" value="" style="sketch=0;aspect=fixed;html=1;points=[];align=center;image;fontSize=12;image=img/lib/mscae/OpenShift.svg;fillColor=#FF0000;" parent="5SWDZmiy2JB9zqztFumV-89" vertex="1"><mxGeometry x="445" y="20" width="50" height="46" as="geometry"/></mxCell><mxCell id="5SWDZmiy2JB9zqztFumV-95" value="" style="sketch=0;aspect=fixed;html=1;points=[];align=center;image;fontSize=12;image=img/lib/mscae/OpenShift.svg;fillColor=#FF0000;" parent="5SWDZmiy2JB9zqztFumV-89" vertex="1"><mxGeometry x="520" y="38" width="50" height="46" as="geometry"/></mxCell><mxCell id="aGBaLiG1cuLqGY5oC4Ow-0" value="" style="aspect=fixed;perimeter=ellipsePerimeter;html=1;align=center;shadow=0;dashed=0;fontColor=#4277BB;labelBackgroundColor=#ffffff;fontSize=12;spacingTop=3;image;image=img/lib/ibm/vpc/PublicGateway.svg;fillColor=#FF0000;" vertex="1" parent="5SWDZmiy2JB9zqztFumV-19"><mxGeometry x="170" y="80" width="30" height="30" as="geometry"/></mxCell><mxCell id="aGBaLiG1cuLqGY5oC4Ow-1" value="" style="aspect=fixed;perimeter=ellipsePerimeter;html=1;align=center;shadow=0;dashed=0;fontColor=#4277BB;labelBackgroundColor=#ffffff;fontSize=12;spacingTop=3;image;image=img/lib/ibm/vpc/PublicGateway.svg;fillColor=#FF0000;" vertex="1" parent="5SWDZmiy2JB9zqztFumV-19"><mxGeometry x="390" y="80" width="30" height="30" as="geometry"/></mxCell><mxCell id="aGBaLiG1cuLqGY5oC4Ow-2" value="" style="aspect=fixed;perimeter=ellipsePerimeter;html=1;align=center;shadow=0;dashed=0;fontColor=#4277BB;labelBackgroundColor=#ffffff;fontSize=12;spacingTop=3;image;image=img/lib/ibm/vpc/PublicGateway.svg;fillColor=#FF0000;" vertex="1" parent="5SWDZmiy2JB9zqztFumV-19"><mxGeometry x="600" y="80" width="30" height="30" as="geometry"/></mxCell></root></mxGraphModel></diagram></mxfile>